<svg xmlns="http://www.w3.org/2000/svg" xmlns:xlink="http://www.w3.org/1999/xlink" width="1920" zoomAndPan="magnify" viewBox="0 0 1440 809.999993" height="1080" preserveAspectRatio="xMidYMid meet" version="1.0"><defs><filter x="0%" y="0%" width="100%" height="100%" id="88e97ce1ee"><feColorMatrix values="0 0 0 0 1 0 0 0 0 1 0 0 0 0 1 0 0 0 1 0" color-interpolation-filters="sRGB"/></filter><mask id="60bdef2f38"><g filter="url(#88e97ce1ee)"><rect x="-144" width="1728" fill="#000000" y="-80.999999" height="971.999992" fill-opacity="0.1098"/></g></mask><clipPath id="7b3d6156e3"><path d="M 0 0 L 810 0 L 810 810 L 0 810 Z M 0 0 " clip-rule="nonzero"/></clipPath><clipPath id="8ac48075dc"><rect x="0" width="812" y="0" height="810"/></clipPath><mask id="ff1042939f"><g filter="url(#88e97ce1ee)"><rect x="-144" width="1728" fill="#000000" y="-80.999999" height="971.999992" fill-opacity="0.1098"/></g></mask><clipPath id="90caa3736d"><path d="M 0 0 L 630 0 L 630 810 L 0 810 Z M 0 0 " clip-rule="nonzero"/></clipPath><clipPath id="ecf0c400c9"><rect x="0" width="630" y="0" height="810"/></clipPath></defs><rect x="-144" width="1728" fill="#ffffff" y="-80.999999" height="971.999992" fill-opacity="1"/><rect x="-144" width="1728" fill="#ffffff" y="-80.999999" height="971.999992" fill-opacity="1"/><rect x="-144" width="1728" fill="#bdd6ed" y="-80.999999" height="971.999992" fill-opacity="1"/><g mask="url(#60bdef2f38)"><g transform="matrix(1, 0, 0, 1, 0, 0.000000000000039746)"><g clip-path="url(#8ac48075dc)"><g clip-path="url(#7b3d6156e3)"><path fill="#395383" d="M 0.207031 99.785156 L 0.207031 90.632812 L 21.703125 47.640625 L 0.207031 4.640625 L 0.207031 0.0703125 L 2.492188 0.0703125 L 23.992188 43.0625 L 45.492188 0.0703125 L 50.0625 0.0703125 L 48.921875 2.355469 L 26.277344 47.640625 L 25.132812 49.925781 L 23.992188 52.210938 L 1.347656 97.496094 Z M 810.394531 710.53125 L 810.394531 719.683594 L 788.894531 762.679688 L 810.394531 805.671875 L 810.394531 810.25 L 808.109375 810.25 L 786.609375 767.253906 L 765.109375 810.25 L 760.53125 810.25 L 761.675781 807.964844 L 784.316406 762.679688 L 785.460938 760.394531 L 786.601562 758.105469 L 809.246094 712.828125 Z M 0.207031 710.53125 L 0.207031 719.683594 L 21.703125 762.679688 L 0.207031 805.671875 L 0.207031 810.25 L 2.492188 810.25 L 23.992188 767.253906 L 45.492188 810.25 L 50.0625 810.25 L 48.921875 807.964844 L 26.277344 762.679688 L 25.132812 760.394531 L 23.992188 758.105469 L 1.347656 712.828125 Z M 176.273438 603.058594 L 152.117188 554.746094 L 149.789062 550.097656 L 147.464844 554.746094 L 123.304688 603.058594 L 120.980469 607.707031 L 123.304688 612.351562 L 147.464844 660.667969 L 149.789062 665.316406 L 152.117188 660.667969 L 176.273438 612.351562 L 178.601562 607.707031 Z M 2.53125 612.351562 L 48.519531 704.328125 L 53.160156 713.625 L 99.148438 805.605469 L 101.476562 810.25 L 103.796875 805.605469 L 149.785156 713.625 L 152.109375 708.976562 L 154.429688 704.328125 L 200.417969 612.351562 L 202.738281 607.707031 L 205.066406 603.058594 L 251.054688 511.078125 L 255.703125 501.78125 L 301.6875 409.800781 L 304.015625 405.15625 L 306.335938 400.507812 L 352.324219 308.527344 L 354.652344 303.878906 L 356.972656 299.230469 L 402.960938 207.257812 L 405.28125 202.609375 L 407.605469 197.960938 L 453.59375 105.980469 L 455.921875 101.332031 L 458.242188 96.6875 L 504.230469 4.703125 L 506.554688 0.0585938 L 508.875 4.703125 L 554.863281 96.6875 L 557.183594 101.332031 L 559.511719 105.980469 L 605.5 197.960938 L 607.820312 202.609375 L 610.148438 207.257812 L 656.132812 299.230469 L 658.460938 303.878906 L 660.78125 308.527344 L 706.769531 400.507812 L 709.089844 405.15625 L 711.417969 409.800781 L 757.402344 501.78125 L 762.050781 511.078125 L 808.039062 603.058594 L 810.359375 607.707031 L 808.039062 612.351562 L 757.402344 713.625 L 711.417969 805.605469 L 709.089844 810.25 L 706.769531 805.605469 L 660.78125 713.625 L 658.460938 708.976562 L 656.132812 704.328125 L 610.148438 612.351562 L 607.820312 607.707031 L 605.5 603.058594 L 559.511719 511.078125 L 557.183594 506.429688 L 554.863281 501.78125 L 508.875 409.800781 L 506.554688 405.15625 L 504.230469 400.507812 L 458.242188 308.527344 L 455.921875 303.878906 L 453.59375 299.230469 L 407.605469 207.257812 L 405.28125 202.609375 L 402.960938 197.960938 L 356.972656 105.980469 L 354.652344 101.332031 L 352.324219 96.6875 L 306.335938 4.703125 L 304.015625 0.0585938 L 301.6875 4.703125 L 255.703125 96.6875 L 253.378906 101.332031 L 251.054688 105.980469 L 205.066406 197.960938 L 202.738281 202.609375 L 200.417969 207.257812 L 154.429688 299.230469 L 152.109375 303.878906 L 149.785156 308.527344 L 103.796875 400.507812 L 101.476562 405.15625 L 99.148438 409.800781 L 53.160156 501.78125 L 48.519531 511.078125 L 2.53125 603.058594 L 0.207031 607.707031 Z M 304.027344 405.160156 L 306.347656 409.808594 L 352.335938 501.789062 L 354.664062 506.4375 L 356.984375 511.082031 L 402.96875 603.0625 L 453.605469 704.335938 L 455.933594 708.980469 L 458.253906 713.628906 L 504.242188 805.609375 L 506.566406 810.257812 L 508.886719 805.609375 L 554.875 713.628906 L 557.195312 708.980469 L 559.523438 704.335938 L 605.511719 612.359375 L 607.832031 607.710938 L 610.15625 603.0625 L 656.144531 511.082031 L 658.472656 506.4375 L 660.792969 501.789062 L 706.78125 409.808594 L 709.101562 405.160156 L 711.429688 400.511719 L 757.414062 308.53125 L 759.738281 303.882812 L 762.0625 299.238281 L 808.050781 207.261719 L 810.371094 202.613281 L 808.050781 197.96875 L 762.0625 105.984375 L 759.738281 101.339844 L 757.414062 96.691406 L 711.429688 4.710938 L 709.101562 0.0625 L 706.78125 4.710938 L 660.804688 96.691406 L 658.484375 101.339844 L 656.15625 105.984375 L 610.167969 197.96875 L 607.84375 202.613281 L 605.523438 207.261719 L 559.535156 299.238281 L 557.207031 303.882812 L 554.886719 308.53125 L 508.898438 400.511719 L 506.578125 405.160156 L 504.253906 409.808594 L 458.265625 501.789062 L 455.945312 506.4375 L 453.617188 511.082031 L 407.628906 603.0625 L 402.980469 612.359375 L 356.996094 704.335938 L 354.671875 708.980469 L 352.347656 713.628906 L 306.359375 805.609375 L 304.039062 810.257812 L 301.710938 805.609375 L 255.722656 713.628906 L 253.402344 708.980469 L 251.078125 704.335938 L 205.089844 612.359375 L 202.761719 607.710938 L 200.441406 603.0625 L 154.453125 511.082031 L 152.132812 506.4375 L 149.808594 501.789062 L 103.820312 409.808594 L 101.5 405.160156 L 99.171875 400.511719 L 53.183594 308.53125 L 50.863281 303.882812 L 48.542969 299.238281 L 0.230469 202.613281 L 2.554688 197.96875 L 48.542969 105.984375 L 50.863281 101.339844 L 53.183594 96.691406 L 99.171875 4.710938 L 101.5 0.0625 L 103.820312 4.710938 L 149.808594 96.691406 L 152.132812 101.339844 L 154.453125 105.984375 L 200.441406 197.96875 L 202.761719 202.613281 L 205.089844 207.261719 L 251.078125 299.238281 L 253.402344 303.882812 L 255.722656 308.53125 L 301.710938 400.511719 Z M 53.167969 695.039062 L 9.5 607.707031 L 53.167969 520.371094 L 96.835938 607.707031 Z M 101.480469 791.660156 L 57.816406 704.328125 L 101.480469 616.996094 L 145.148438 704.328125 Z M 101.480469 423.742188 L 145.148438 511.078125 L 101.480469 598.410156 L 57.816406 511.078125 Z M 149.796875 520.371094 L 193.460938 607.707031 L 149.796875 695.039062 L 106.128906 607.707031 Z M 101.480469 743.347656 L 81.972656 704.328125 L 101.480469 665.308594 L 120.992188 704.328125 Z M 75.003906 708.976562 L 72.675781 704.328125 L 75.003906 699.679688 L 99.160156 651.367188 L 101.488281 646.71875 L 103.808594 651.367188 L 127.964844 699.679688 L 130.285156 704.328125 L 127.964844 708.976562 L 103.808594 757.289062 L 101.488281 761.9375 L 99.160156 757.289062 Z M 26.691406 612.351562 L 50.847656 660.667969 L 53.167969 665.316406 L 55.492188 660.667969 L 79.652344 612.351562 L 81.972656 607.707031 L 79.652344 603.058594 L 55.492188 554.746094 L 53.167969 550.097656 L 50.847656 554.746094 L 26.691406 603.058594 L 24.363281 607.707031 Z M 53.167969 646.726562 L 33.65625 607.707031 L 53.167969 568.6875 L 72.675781 607.707031 Z M 101.480469 472.058594 L 120.992188 511.078125 L 101.480469 550.097656 L 81.972656 511.078125 Z M 127.960938 506.429688 L 130.28125 511.078125 L 127.960938 515.726562 L 103.800781 564.039062 L 101.480469 568.6875 L 99.15625 564.039062 L 74.996094 515.726562 L 72.671875 511.078125 L 74.996094 506.429688 L 99.15625 458.117188 L 101.480469 453.46875 L 103.800781 458.117188 Z M 149.796875 568.6875 L 169.304688 607.707031 L 149.796875 646.726562 L 130.285156 607.707031 Z M 202.75 495.722656 L 181.253906 452.730469 L 202.75 409.734375 L 224.25 452.730469 Z M 200.464844 405.160156 L 178.964844 448.152344 L 157.46875 405.160156 L 178.964844 362.160156 Z M 152.894531 405.160156 L 154.039062 407.445312 L 176.679688 452.730469 L 177.824219 455.019531 L 178.964844 457.304688 L 201.609375 502.589844 L 202.75 504.875 L 203.894531 502.589844 L 226.535156 457.304688 L 227.679688 455.019531 L 228.824219 452.730469 L 251.460938 407.445312 L 252.601562 405.160156 L 251.460938 402.875 L 228.824219 357.589844 L 227.679688 355.300781 L 226.535156 353.015625 L 203.894531 307.738281 L 202.75 305.449219 L 201.609375 307.738281 L 178.964844 353.015625 L 177.824219 355.300781 L 176.679688 357.589844 L 154.039062 402.875 Z M 248.035156 405.160156 L 226.535156 448.152344 L 205.039062 405.160156 L 226.535156 362.160156 Z M 202.75 471.9375 L 193.148438 452.730469 L 202.75 433.519531 L 212.359375 452.730469 Z M 202.75 424.367188 L 201.609375 426.652344 L 189.710938 450.4375 L 188.570312 452.726562 L 189.710938 455.011719 L 201.609375 478.796875 L 202.75 481.082031 L 203.894531 478.796875 L 215.789062 455.011719 L 216.933594 452.726562 L 215.789062 450.4375 L 203.894531 426.652344 Z M 188.570312 405.160156 L 178.964844 424.367188 L 169.355469 405.160156 L 178.964844 385.949219 Z M 164.789062 405.160156 L 165.933594 407.445312 L 177.828125 431.230469 L 178.972656 433.519531 L 180.113281 431.230469 L 192.011719 407.445312 L 193.152344 405.160156 L 192.011719 402.875 L 180.113281 379.089844 L 178.972656 376.800781 L 177.828125 379.089844 L 165.933594 402.875 Z M 0.207031 504.875 L 0.207031 495.722656 L 21.703125 452.730469 L 0.207031 409.734375 L 0.207031 400.582031 L 21.703125 357.589844 L 0.207031 314.589844 L 0.207031 305.4375 L 1.347656 307.726562 L 23.992188 353.003906 L 25.132812 355.292969 L 26.277344 357.578125 L 48.921875 402.863281 L 50.0625 405.148438 L 48.921875 407.433594 L 26.277344 452.71875 L 25.132812 455.007812 L 23.992188 457.292969 L 1.347656 502.578125 Z M 2.5 405.160156 L 23.996094 448.152344 L 45.496094 405.160156 L 23.996094 362.160156 Z M 0.207031 481.089844 L 0.207031 471.9375 L 9.816406 452.730469 L 0.207031 433.519531 L 0.207031 424.367188 L 1.347656 426.652344 L 13.246094 450.4375 L 14.386719 452.726562 L 13.246094 455.011719 L 1.347656 478.796875 Z M 14.386719 405.160156 L 23.992188 424.367188 L 33.59375 405.160156 L 23.992188 385.949219 Z M 38.171875 405.160156 L 37.03125 407.445312 L 25.132812 431.230469 L 23.992188 433.519531 L 22.847656 431.230469 L 10.957031 407.445312 L 9.816406 405.160156 L 10.957031 402.875 L 22.847656 379.089844 L 23.992188 376.800781 L 25.132812 379.089844 L 37.03125 402.875 Z M 202.75 719.683594 L 181.253906 762.679688 L 202.75 805.671875 L 224.25 762.679688 Z M 202.75 810.25 L 200.464844 810.25 L 178.964844 767.253906 L 157.46875 810.25 L 152.894531 810.25 L 154.039062 807.964844 L 176.679688 762.679688 L 177.824219 760.394531 L 178.964844 758.105469 L 201.609375 712.828125 L 202.75 710.542969 L 203.894531 712.828125 L 226.535156 758.105469 L 227.679688 760.394531 L 228.824219 762.679688 L 251.460938 807.964844 L 252.601562 810.25 L 248.03125 810.25 L 226.53125 767.253906 L 205.03125 810.25 Z M 202.75 743.46875 L 193.148438 762.679688 L 202.75 781.894531 L 212.359375 762.679688 Z M 202.75 791.039062 L 201.609375 788.753906 L 189.710938 764.96875 L 188.570312 762.679688 L 189.710938 760.394531 L 201.609375 736.609375 L 202.75 734.320312 L 203.894531 736.609375 L 215.789062 760.394531 L 216.933594 762.679688 L 215.789062 764.96875 L 203.894531 788.753906 Z M 193.148438 810.25 L 188.570312 810.25 L 178.964844 791.039062 L 169.355469 810.25 L 164.785156 810.25 L 165.925781 807.964844 L 177.824219 784.179688 L 178.964844 781.894531 L 180.109375 784.179688 L 192.003906 807.964844 Z M 0.207031 734.316406 L 1.347656 736.601562 L 13.246094 760.386719 L 14.386719 762.675781 L 13.246094 764.960938 L 1.347656 788.746094 L 0.207031 791.035156 L 0.207031 781.882812 L 9.816406 762.667969 L 0.207031 743.457031 Z M 9.816406 810.25 L 10.957031 807.964844 L 22.847656 784.179688 L 23.992188 781.894531 L 25.132812 784.179688 L 37.03125 807.964844 L 38.171875 810.25 L 33.59375 810.25 L 23.992188 791.039062 L 14.386719 810.25 Z M 405.296875 719.683594 L 383.796875 762.679688 L 405.296875 805.671875 L 426.796875 762.679688 Z M 405.296875 810.25 L 403.011719 810.25 L 381.511719 767.253906 L 360.011719 810.25 L 355.433594 810.25 L 356.578125 807.964844 L 379.21875 762.679688 L 380.363281 760.394531 L 381.507812 758.105469 L 404.148438 712.828125 L 405.292969 710.542969 L 406.433594 712.828125 L 429.078125 758.105469 L 430.21875 760.394531 L 431.363281 762.679688 L 454 807.964844 L 455.144531 810.25 L 450.570312 810.25 L 429.070312 767.253906 L 407.574219 810.25 Z M 229.234375 603.058594 L 255.714844 550.097656 L 258.035156 554.746094 L 282.195312 603.058594 L 284.515625 607.707031 L 282.195312 612.351562 L 258.035156 660.667969 L 255.714844 665.316406 L 253.390625 660.667969 L 229.234375 612.351562 L 226.914062 607.707031 Z M 352.339844 695.039062 L 396.007812 607.707031 L 352.339844 520.371094 L 308.675781 607.707031 Z M 304.027344 791.660156 L 347.695312 704.328125 L 304.027344 616.996094 L 260.359375 704.328125 Z M 304.027344 423.742188 L 260.359375 511.078125 L 304.027344 598.410156 L 347.695312 511.078125 Z M 255.714844 520.371094 L 212.046875 607.707031 L 255.714844 695.039062 L 299.378906 607.707031 Z M 304.027344 743.347656 L 323.535156 704.328125 L 304.027344 665.308594 L 284.515625 704.328125 Z M 330.503906 708.976562 L 306.347656 757.289062 L 304.027344 761.9375 L 301.699219 757.289062 L 275.21875 704.328125 L 301.699219 651.367188 L 304.027344 646.71875 L 306.347656 651.367188 L 330.503906 699.679688 L 332.824219 704.328125 Z M 378.820312 612.351562 L 354.664062 660.667969 L 352.335938 665.316406 L 350.015625 660.667969 L 325.859375 612.351562 L 323.53125 607.707031 L 325.859375 603.058594 L 350.015625 554.746094 L 352.335938 550.097656 L 354.664062 554.746094 L 381.144531 607.707031 Z M 352.339844 646.726562 L 371.851562 607.707031 L 352.339844 568.6875 L 332.832031 607.707031 Z M 304.027344 472.058594 L 284.515625 511.078125 L 304.027344 550.097656 L 323.535156 511.078125 Z M 277.550781 506.429688 L 304.03125 453.46875 L 330.511719 506.429688 L 332.832031 511.078125 L 330.511719 515.726562 L 304.03125 568.6875 L 277.550781 515.726562 L 275.222656 511.078125 Z M 255.714844 568.6875 L 236.203125 607.707031 L 255.714844 646.726562 L 275.222656 607.707031 Z M 216.933594 405.160156 L 226.535156 424.367188 L 236.140625 405.160156 L 226.535156 385.949219 Z M 240.71875 405.160156 L 239.574219 407.445312 L 227.679688 431.230469 L 226.535156 433.519531 L 225.394531 431.230469 L 213.503906 407.445312 L 212.359375 405.160156 L 213.503906 402.875 L 225.394531 379.089844 L 226.535156 376.800781 L 227.679688 379.089844 L 239.574219 402.875 Z M 405.296875 495.722656 L 383.796875 452.730469 L 405.296875 409.734375 L 426.796875 452.730469 Z M 403.011719 405.160156 L 381.511719 448.152344 L 360.011719 405.160156 L 381.511719 362.160156 Z M 355.441406 405.160156 L 356.582031 407.445312 L 379.226562 452.730469 L 380.367188 455.019531 L 381.511719 457.304688 L 404.152344 502.589844 L 405.296875 504.875 L 406.441406 502.589844 L 429.082031 457.304688 L 430.226562 455.019531 L 431.371094 452.730469 L 454.003906 407.445312 L 455.148438 405.160156 L 454.003906 402.875 L 431.371094 357.589844 L 430.226562 355.300781 L 429.082031 353.015625 L 406.441406 307.738281 L 405.296875 305.449219 L 404.152344 307.738281 L 381.511719 353.015625 L 380.367188 355.300781 L 379.226562 357.589844 L 356.582031 402.875 Z M 450.582031 405.160156 L 429.082031 448.152344 L 407.582031 405.160156 L 429.082031 362.160156 Z M 405.296875 471.9375 L 395.695312 452.730469 L 405.296875 433.519531 L 414.90625 452.730469 Z M 405.296875 424.367188 L 404.152344 426.652344 L 392.257812 450.4375 L 391.113281 452.726562 L 392.257812 455.011719 L 404.152344 478.796875 L 405.296875 481.082031 L 406.441406 478.796875 L 418.335938 455.011719 L 419.480469 452.726562 L 418.335938 450.4375 L 406.441406 426.652344 Z M 391.113281 405.160156 L 381.511719 424.367188 L 371.910156 405.160156 L 381.511719 385.949219 Z M 367.335938 405.160156 L 368.476562 407.445312 L 380.375 431.230469 L 381.515625 433.519531 L 382.660156 431.230469 L 394.554688 407.445312 L 395.699219 405.160156 L 394.554688 402.875 L 382.660156 379.089844 L 381.515625 376.800781 L 380.375 379.089844 L 368.476562 402.875 Z M 212.359375 810.25 L 216.933594 810.25 L 226.535156 791.039062 L 236.140625 810.25 L 240.71875 810.25 L 239.574219 807.964844 L 227.679688 784.179688 L 226.535156 781.894531 L 225.394531 784.179688 L 213.503906 807.964844 Z M 405.296875 743.46875 L 395.695312 762.679688 L 405.296875 781.894531 L 414.90625 762.679688 Z M 405.296875 791.039062 L 404.152344 788.753906 L 392.257812 764.96875 L 391.113281 762.679688 L 392.257812 760.394531 L 404.152344 736.609375 L 405.296875 734.320312 L 406.441406 736.609375 L 418.335938 760.394531 L 419.480469 762.679688 L 418.335938 764.96875 L 406.441406 788.753906 Z M 395.695312 810.25 L 391.113281 810.25 L 381.511719 791.039062 L 371.910156 810.25 L 367.335938 810.25 L 368.476562 807.964844 L 380.375 784.179688 L 381.515625 781.894531 L 382.660156 784.179688 L 394.554688 807.964844 Z M 581.363281 603.058594 L 557.207031 554.746094 L 554.886719 550.097656 L 552.5625 554.746094 L 528.402344 603.058594 L 526.078125 607.707031 L 528.402344 612.351562 L 552.5625 660.667969 L 554.886719 665.316406 L 557.207031 660.667969 L 581.363281 612.351562 L 583.6875 607.707031 Z M 458.257812 695.039062 L 414.59375 607.707031 L 458.257812 520.371094 L 501.925781 607.707031 Z M 506.574219 791.660156 L 462.90625 704.328125 L 506.574219 616.996094 L 550.238281 704.328125 Z M 506.574219 423.742188 L 550.238281 511.078125 L 506.574219 598.410156 L 462.90625 511.078125 Z M 554.886719 520.371094 L 598.554688 607.707031 L 554.886719 695.039062 L 511.21875 607.707031 Z M 506.574219 743.347656 L 487.0625 704.328125 L 506.574219 665.308594 L 526.082031 704.328125 Z M 480.09375 708.976562 L 504.253906 757.289062 L 506.578125 761.9375 L 508.898438 757.289062 L 535.378906 704.328125 L 508.898438 651.367188 L 506.578125 646.71875 L 504.253906 651.367188 L 480.09375 699.679688 L 477.769531 704.328125 Z M 431.78125 612.351562 L 455.9375 660.667969 L 458.257812 665.316406 L 460.585938 660.667969 L 484.742188 612.351562 L 487.0625 607.707031 L 484.742188 603.058594 L 460.585938 554.746094 L 458.257812 550.097656 L 455.9375 554.746094 L 431.78125 603.058594 L 429.460938 607.707031 Z M 458.257812 646.726562 L 438.75 607.707031 L 458.257812 568.6875 L 477.769531 607.707031 Z M 506.574219 472.058594 L 526.082031 511.078125 L 506.574219 550.097656 L 487.0625 511.078125 Z M 533.050781 506.429688 L 508.894531 458.117188 L 506.574219 453.46875 L 504.246094 458.117188 L 480.089844 506.429688 L 477.761719 511.078125 L 480.089844 515.726562 L 504.246094 564.039062 L 506.574219 568.6875 L 508.894531 564.039062 L 533.050781 515.726562 L 535.371094 511.078125 Z M 554.886719 568.6875 L 574.398438 607.707031 L 554.886719 646.726562 L 535.378906 607.707031 Z M 607.84375 495.722656 L 586.34375 452.730469 L 607.84375 409.734375 L 629.34375 452.730469 Z M 605.554688 405.160156 L 584.058594 448.152344 L 562.558594 405.160156 L 584.058594 362.160156 Z M 557.984375 405.160156 L 559.128906 407.445312 L 581.769531 452.730469 L 582.914062 455.019531 L 584.058594 457.304688 L 606.699219 502.589844 L 607.84375 504.875 L 608.984375 502.589844 L 631.628906 457.304688 L 632.773438 455.019531 L 633.914062 452.730469 L 656.558594 407.445312 L 657.699219 405.160156 L 656.558594 402.875 L 633.914062 357.589844 L 632.773438 355.300781 L 631.628906 353.015625 L 608.984375 307.738281 L 607.84375 305.449219 L 606.699219 307.738281 L 584.058594 353.015625 L 582.914062 355.300781 L 581.769531 357.589844 L 559.128906 402.875 Z M 653.128906 405.160156 L 631.628906 448.152344 L 610.128906 405.160156 L 631.628906 362.160156 Z M 607.84375 471.9375 L 598.238281 452.730469 L 607.84375 433.519531 L 617.453125 452.730469 Z M 607.84375 424.367188 L 606.699219 426.652344 L 594.804688 450.4375 L 593.660156 452.726562 L 594.804688 455.011719 L 606.699219 478.796875 L 607.84375 481.082031 L 608.984375 478.796875 L 620.882812 455.011719 L 622.023438 452.726562 L 620.882812 450.4375 L 608.984375 426.652344 Z M 593.660156 405.160156 L 584.058594 424.367188 L 574.453125 405.160156 L 584.058594 385.949219 Z M 569.875 405.160156 L 571.019531 407.445312 L 582.914062 431.230469 L 584.058594 433.519531 L 585.199219 431.230469 L 597.097656 407.445312 L 598.238281 405.160156 L 597.097656 402.875 L 585.199219 379.089844 L 584.058594 376.800781 L 582.914062 379.089844 L 571.019531 402.875 Z M 419.480469 405.160156 L 429.089844 424.367188 L 438.691406 405.160156 L 429.089844 385.949219 Z M 443.265625 405.160156 L 442.121094 407.445312 L 430.226562 431.230469 L 429.082031 433.519531 L 427.941406 431.230469 L 416.042969 407.445312 L 414.902344 405.160156 L 416.042969 402.875 L 427.941406 379.089844 L 429.082031 376.800781 L 430.226562 379.089844 L 442.121094 402.875 Z M 607.84375 719.683594 L 586.34375 762.679688 L 607.84375 805.671875 L 629.34375 762.679688 Z M 607.84375 810.25 L 605.554688 810.25 L 584.058594 767.253906 L 562.558594 810.25 L 557.980469 810.25 L 559.121094 807.964844 L 581.765625 762.679688 L 582.910156 760.394531 L 584.050781 758.105469 L 606.695312 712.828125 L 607.835938 710.542969 L 608.980469 712.828125 L 631.621094 758.105469 L 632.765625 760.394531 L 633.910156 762.679688 L 656.550781 807.964844 L 657.695312 810.25 L 653.121094 810.25 L 631.621094 767.253906 L 610.125 810.25 Z M 607.84375 743.46875 L 598.238281 762.679688 L 607.84375 781.894531 L 617.453125 762.679688 Z M 607.84375 791.039062 L 606.699219 788.753906 L 594.804688 764.96875 L 593.660156 762.679688 L 594.804688 760.394531 L 606.699219 736.609375 L 607.84375 734.320312 L 608.984375 736.609375 L 620.882812 760.394531 L 622.023438 762.679688 L 620.882812 764.96875 L 608.984375 788.753906 Z M 598.238281 810.25 L 593.660156 810.25 L 584.058594 791.039062 L 574.453125 810.25 L 569.875 810.25 L 571.019531 807.964844 L 582.914062 784.179688 L 584.058594 781.894531 L 585.199219 784.179688 L 597.097656 807.964844 Z M 414.90625 810.25 L 419.480469 810.25 L 429.089844 791.039062 L 438.691406 810.25 L 443.269531 810.25 L 442.128906 807.964844 L 430.230469 784.179688 L 429.089844 781.894531 L 427.945312 784.179688 L 416.050781 807.964844 Z M 634.328125 603.058594 L 658.484375 554.746094 L 660.804688 550.097656 L 663.125 554.746094 L 687.28125 603.058594 L 689.609375 607.707031 L 687.28125 612.351562 L 663.125 660.667969 L 660.804688 665.316406 L 658.484375 660.667969 L 634.328125 612.351562 L 632.003906 607.707031 Z M 757.433594 695.039062 L 801.101562 607.707031 L 757.433594 520.371094 L 713.765625 607.707031 Z M 709.117188 791.660156 L 752.785156 704.328125 L 709.117188 616.996094 L 665.453125 704.328125 Z M 709.117188 423.742188 L 665.453125 511.078125 L 709.117188 598.410156 L 752.785156 511.078125 Z M 660.804688 520.371094 L 617.136719 607.707031 L 660.804688 695.039062 L 704.472656 607.707031 Z M 709.117188 743.347656 L 728.628906 704.328125 L 709.117188 665.308594 L 689.609375 704.328125 Z M 735.601562 708.976562 L 711.445312 757.289062 L 709.117188 761.9375 L 706.796875 757.289062 L 682.640625 708.976562 L 680.3125 704.328125 L 682.640625 699.679688 L 706.796875 651.367188 L 709.117188 646.71875 L 711.445312 651.367188 L 735.601562 699.679688 L 737.921875 704.328125 Z M 783.910156 612.351562 L 759.753906 660.667969 L 757.433594 665.316406 L 755.105469 660.667969 L 730.949219 612.351562 L 728.621094 607.707031 L 730.949219 603.058594 L 755.105469 554.746094 L 757.433594 550.097656 L 759.753906 554.746094 L 783.910156 603.058594 L 786.238281 607.707031 Z M 757.433594 646.726562 L 776.941406 607.707031 L 757.433594 568.6875 L 737.921875 607.707031 Z M 709.117188 472.058594 L 689.609375 511.078125 L 709.117188 550.097656 L 728.628906 511.078125 Z M 682.640625 506.429688 L 706.796875 458.117188 L 709.117188 453.46875 L 711.445312 458.117188 L 735.601562 506.429688 L 737.921875 511.078125 L 735.601562 515.726562 L 711.445312 564.039062 L 709.117188 568.6875 L 706.796875 564.039062 L 682.640625 515.726562 L 680.3125 511.078125 Z M 660.804688 568.6875 L 641.292969 607.707031 L 660.804688 646.726562 L 680.3125 607.707031 Z M 622.023438 405.160156 L 631.632812 424.367188 L 641.238281 405.160156 L 631.632812 385.949219 Z M 645.816406 405.160156 L 644.671875 407.445312 L 632.777344 431.230469 L 631.632812 433.519531 L 630.492188 431.230469 L 618.59375 407.445312 L 617.453125 405.160156 L 618.59375 402.875 L 630.492188 379.089844 L 631.632812 376.800781 L 632.777344 379.089844 L 644.671875 402.875 Z M 810.394531 504.875 L 810.394531 495.722656 L 788.894531 452.730469 L 810.394531 409.734375 L 810.394531 400.582031 L 788.894531 357.589844 L 810.394531 314.589844 L 810.394531 305.4375 L 809.25 307.726562 L 786.609375 353.003906 L 785.464844 355.292969 L 784.320312 357.578125 L 761.679688 402.863281 L 760.535156 405.148438 L 761.679688 407.433594 L 784.320312 452.71875 L 785.464844 455.007812 L 786.609375 457.292969 L 809.25 502.578125 Z M 808.101562 405.160156 L 786.601562 448.152344 L 765.105469 405.160156 L 786.601562 362.160156 Z M 810.394531 481.089844 L 810.394531 471.9375 L 800.789062 452.730469 L 810.394531 433.519531 L 810.394531 424.367188 L 809.25 426.652344 L 797.355469 450.4375 L 796.210938 452.726562 L 797.355469 455.011719 L 809.25 478.796875 Z M 796.210938 405.160156 L 786.609375 424.367188 L 777.003906 405.160156 L 786.609375 385.949219 Z M 772.425781 405.160156 L 773.570312 407.445312 L 785.464844 431.230469 L 786.609375 433.519531 L 787.753906 431.230469 L 799.648438 407.445312 L 800.789062 405.160156 L 799.648438 402.875 L 787.753906 379.089844 L 786.609375 376.800781 L 785.464844 379.089844 L 773.570312 402.875 Z M 617.453125 810.25 L 622.023438 810.25 L 631.632812 791.039062 L 641.238281 810.25 L 645.816406 810.25 L 644.671875 807.964844 L 632.777344 784.179688 L 631.632812 781.894531 L 630.492188 784.179688 L 618.59375 807.964844 Z M 810.394531 734.316406 L 809.25 736.601562 L 797.355469 760.386719 L 796.210938 762.675781 L 797.355469 764.960938 L 809.25 788.746094 L 810.394531 791.035156 L 810.394531 781.882812 L 800.789062 762.667969 L 810.394531 743.457031 Z M 800.785156 810.25 L 799.640625 807.964844 L 787.746094 784.179688 L 786.601562 781.894531 L 785.460938 784.179688 L 773.5625 807.964844 L 772.421875 810.25 L 776.992188 810.25 L 786.597656 791.039062 L 796.199219 810.25 Z M 810.394531 99.785156 L 810.394531 90.632812 L 788.894531 47.640625 L 810.394531 4.640625 L 810.394531 0.0703125 L 808.109375 0.0703125 L 786.609375 43.0625 L 765.109375 0.0703125 L 760.53125 0.0703125 L 761.675781 2.355469 L 784.316406 47.640625 L 785.460938 49.925781 L 786.601562 52.210938 L 809.246094 97.496094 Z M 634.328125 207.261719 L 658.484375 255.574219 L 660.804688 260.222656 L 663.125 255.574219 L 687.28125 207.261719 L 689.609375 202.613281 L 687.28125 197.96875 L 663.125 149.652344 L 660.804688 145.003906 L 658.484375 149.652344 L 634.328125 197.96875 L 632.003906 202.613281 Z M 757.433594 115.28125 L 801.101562 202.613281 L 757.433594 289.949219 L 713.765625 202.613281 Z M 709.117188 18.652344 L 752.785156 105.984375 L 709.117188 193.320312 L 665.453125 105.984375 Z M 709.117188 386.570312 L 665.453125 299.238281 L 709.117188 211.902344 L 752.785156 299.238281 Z M 660.804688 289.941406 L 617.136719 202.609375 L 660.804688 115.273438 L 704.472656 202.609375 Z M 709.117188 66.964844 L 728.628906 105.984375 L 709.117188 145.003906 L 689.609375 105.984375 Z M 735.601562 101.339844 L 711.445312 53.023438 L 709.117188 48.378906 L 706.796875 53.023438 L 682.640625 101.339844 L 680.3125 105.984375 L 682.640625 110.632812 L 706.796875 158.949219 L 709.117188 163.59375 L 711.445312 158.949219 L 735.601562 110.632812 L 737.921875 105.984375 Z M 783.910156 197.96875 L 759.753906 149.652344 L 757.433594 145.003906 L 755.105469 149.652344 L 730.949219 197.96875 L 728.621094 202.613281 L 730.949219 207.261719 L 755.105469 255.574219 L 757.433594 260.222656 L 759.753906 255.574219 L 783.910156 207.261719 L 786.238281 202.613281 Z M 757.433594 163.589844 L 776.941406 202.609375 L 757.433594 241.628906 L 737.921875 202.609375 Z M 709.117188 338.257812 L 689.609375 299.238281 L 709.117188 260.21875 L 728.628906 299.238281 Z M 682.640625 303.882812 L 706.796875 352.199219 L 709.117188 356.847656 L 711.445312 352.199219 L 735.601562 303.882812 L 737.921875 299.238281 L 735.601562 294.589844 L 711.445312 246.277344 L 709.117188 241.628906 L 706.796875 246.277344 L 682.640625 294.589844 L 680.3125 299.238281 Z M 660.804688 241.632812 L 641.292969 202.613281 L 660.804688 163.59375 L 680.3125 202.613281 Z M 607.84375 314.585938 L 629.34375 357.582031 L 607.84375 400.574219 L 586.34375 357.582031 Z M 607.84375 338.375 L 617.453125 357.582031 L 607.84375 376.796875 L 598.238281 357.582031 Z M 607.84375 385.949219 L 608.984375 383.660156 L 620.882812 359.875 L 622.023438 357.589844 L 620.882812 355.300781 L 608.984375 331.515625 L 607.84375 329.230469 L 606.699219 331.515625 L 594.804688 355.300781 L 593.660156 357.589844 L 594.804688 359.875 L 606.699219 383.660156 Z M 810.394531 329.226562 L 810.394531 338.375 L 800.789062 357.582031 L 810.394531 376.796875 L 810.394531 385.949219 L 809.25 383.660156 L 797.355469 359.875 L 796.210938 357.589844 L 797.355469 355.300781 L 809.25 331.515625 Z M 607.84375 90.632812 L 629.34375 47.640625 L 607.84375 4.640625 L 586.34375 47.640625 Z M 607.84375 0.0703125 L 610.128906 0.0703125 L 631.628906 43.0625 L 653.128906 0.0703125 L 657.699219 0.0703125 L 656.558594 2.355469 L 633.914062 47.640625 L 632.773438 49.925781 L 631.628906 52.210938 L 608.984375 97.496094 L 607.84375 99.785156 L 606.699219 97.496094 L 584.058594 52.210938 L 581.769531 47.640625 L 559.128906 2.355469 L 557.984375 0.0703125 L 562.5625 0.0703125 L 584.0625 43.0625 L 605.5625 0.0703125 Z M 607.84375 66.847656 L 617.453125 47.640625 L 607.84375 28.425781 L 598.238281 47.640625 Z M 607.84375 19.273438 L 608.984375 21.5625 L 620.882812 45.347656 L 622.023438 47.632812 L 620.882812 49.921875 L 608.984375 73.707031 L 607.84375 75.992188 L 606.699219 73.707031 L 594.804688 49.921875 L 593.660156 47.632812 L 594.804688 45.347656 L 606.699219 21.5625 Z M 617.453125 0.0703125 L 622.023438 0.0703125 L 631.632812 19.273438 L 641.238281 0.0703125 L 645.816406 0.0703125 L 644.671875 2.355469 L 632.777344 26.140625 L 631.632812 28.425781 L 630.492188 26.140625 L 618.59375 2.355469 Z M 810.394531 76 L 810.394531 66.847656 L 800.789062 47.640625 L 810.394531 28.425781 L 810.394531 19.273438 L 809.25 21.5625 L 797.355469 45.347656 L 796.210938 47.632812 L 797.355469 49.921875 L 809.25 73.707031 Z M 800.785156 0.0703125 L 796.207031 0.0703125 L 786.601562 19.273438 L 777 0.0703125 L 772.425781 0.0703125 L 773.570312 2.355469 L 785.464844 26.140625 L 786.609375 28.425781 L 787.753906 26.140625 L 799.648438 2.355469 Z M 405.296875 90.632812 L 426.796875 47.640625 L 405.296875 4.640625 L 383.796875 47.640625 Z M 405.296875 0.0703125 L 407.582031 0.0703125 L 429.082031 43.0625 L 450.582031 0.0703125 L 455.15625 0.0703125 L 454.011719 2.355469 L 431.375 47.640625 L 430.230469 49.925781 L 429.089844 52.210938 L 406.445312 97.496094 L 405.304688 99.785156 L 404.160156 97.496094 L 381.515625 52.210938 L 380.375 49.925781 L 379.230469 47.640625 L 356.589844 2.355469 L 355.445312 0.0703125 L 360.023438 0.0703125 L 381.523438 43.0625 L 403.023438 0.0703125 Z M 581.363281 207.261719 L 557.207031 255.574219 L 554.886719 260.222656 L 552.5625 255.574219 L 528.402344 207.261719 L 526.078125 202.613281 L 528.402344 197.96875 L 552.5625 149.652344 L 554.886719 145.003906 L 557.207031 149.652344 L 581.363281 197.96875 L 583.6875 202.613281 Z M 458.257812 115.28125 L 414.59375 202.613281 L 458.257812 289.949219 L 501.925781 202.613281 Z M 506.574219 18.652344 L 462.90625 105.984375 L 506.574219 193.320312 L 550.238281 105.984375 Z M 506.574219 386.570312 L 550.238281 299.238281 L 506.574219 211.902344 L 462.90625 299.238281 Z M 554.886719 289.941406 L 598.554688 202.609375 L 554.886719 115.273438 L 511.21875 202.609375 Z M 506.574219 66.964844 L 487.0625 105.984375 L 506.574219 145.003906 L 526.082031 105.984375 Z M 480.09375 101.339844 L 504.253906 53.023438 L 506.578125 48.378906 L 508.898438 53.023438 L 533.054688 101.339844 L 535.378906 105.984375 L 533.054688 110.632812 L 508.898438 158.949219 L 506.578125 163.59375 L 504.253906 158.949219 L 480.09375 110.632812 L 477.769531 105.984375 Z M 431.78125 197.96875 L 455.9375 149.652344 L 458.257812 145.003906 L 460.585938 149.652344 L 484.742188 197.96875 L 487.0625 202.613281 L 484.742188 207.261719 L 460.585938 255.574219 L 458.257812 260.222656 L 455.9375 255.574219 L 431.78125 207.261719 L 429.460938 202.613281 Z M 458.257812 163.589844 L 438.75 202.609375 L 458.257812 241.628906 L 477.769531 202.609375 Z M 506.574219 338.257812 L 526.082031 299.238281 L 506.574219 260.21875 L 487.0625 299.238281 Z M 533.050781 303.882812 L 508.894531 352.199219 L 506.574219 356.847656 L 504.246094 352.199219 L 480.089844 303.882812 L 477.761719 299.238281 L 480.089844 294.589844 L 504.246094 246.277344 L 506.574219 241.628906 L 508.894531 246.277344 L 533.050781 294.589844 L 535.371094 299.238281 Z M 554.886719 241.632812 L 574.398438 202.613281 L 554.886719 163.59375 L 535.378906 202.613281 Z M 405.296875 314.585938 L 426.796875 357.582031 L 405.296875 400.574219 L 383.796875 357.582031 Z M 405.296875 338.375 L 414.90625 357.582031 L 405.296875 376.796875 L 395.695312 357.582031 Z M 405.296875 385.949219 L 406.441406 383.660156 L 418.335938 359.875 L 419.480469 357.589844 L 418.335938 355.300781 L 406.441406 331.515625 L 405.296875 329.230469 L 404.152344 331.515625 L 392.257812 355.300781 L 391.113281 357.589844 L 392.257812 359.875 L 404.152344 383.660156 Z M 598.238281 0.0703125 L 593.660156 0.0703125 L 584.058594 19.273438 L 574.453125 0.0703125 L 569.875 0.0703125 L 571.019531 2.355469 L 582.914062 26.140625 L 584.058594 28.425781 L 585.199219 26.140625 L 597.097656 2.355469 Z M 405.296875 66.847656 L 414.90625 47.640625 L 405.296875 28.425781 L 395.695312 47.640625 Z M 405.296875 19.273438 L 406.441406 21.5625 L 418.335938 45.347656 L 419.480469 47.632812 L 418.335938 49.921875 L 406.441406 73.707031 L 405.296875 75.992188 L 404.152344 73.707031 L 392.257812 49.921875 L 391.113281 47.632812 L 392.257812 45.347656 L 404.152344 21.5625 Z M 414.90625 0.0703125 L 419.480469 0.0703125 L 429.089844 19.273438 L 438.691406 0.0703125 L 443.269531 0.0703125 L 442.128906 2.355469 L 430.230469 26.140625 L 429.089844 28.425781 L 427.945312 26.140625 L 416.050781 2.355469 Z M 229.234375 207.261719 L 255.714844 260.222656 L 258.035156 255.574219 L 282.195312 207.261719 L 284.515625 202.613281 L 282.195312 197.96875 L 258.035156 149.652344 L 255.714844 145.003906 L 253.390625 149.652344 L 229.234375 197.96875 L 226.914062 202.613281 Z M 352.339844 115.28125 L 396.007812 202.613281 L 352.339844 289.949219 L 308.675781 202.613281 Z M 304.027344 18.652344 L 347.695312 105.984375 L 304.027344 193.320312 L 260.359375 105.984375 Z M 304.027344 386.570312 L 260.359375 299.238281 L 304.027344 211.902344 L 347.695312 299.238281 Z M 255.714844 289.941406 L 212.046875 202.609375 L 255.714844 115.273438 L 299.378906 202.609375 Z M 304.027344 66.964844 L 323.535156 105.984375 L 304.027344 145.003906 L 284.515625 105.984375 Z M 330.503906 101.339844 L 306.347656 53.023438 L 304.027344 48.378906 L 301.699219 53.023438 L 277.542969 101.339844 L 275.21875 105.984375 L 277.542969 110.632812 L 301.699219 158.949219 L 304.027344 163.59375 L 306.347656 158.949219 L 330.503906 110.632812 L 332.824219 105.984375 Z M 378.820312 197.96875 L 354.664062 149.652344 L 352.335938 145.003906 L 350.015625 149.652344 L 325.859375 197.96875 L 323.53125 202.613281 L 325.859375 207.261719 L 350.015625 255.574219 L 352.335938 260.222656 L 354.664062 255.574219 L 381.144531 202.613281 Z M 352.339844 163.589844 L 371.851562 202.609375 L 352.339844 241.628906 L 332.832031 202.609375 Z M 304.027344 338.257812 L 284.515625 299.238281 L 304.027344 260.21875 L 323.535156 299.238281 Z M 277.550781 303.882812 L 301.707031 352.199219 L 304.03125 356.847656 L 306.355469 352.199219 L 330.511719 303.882812 L 332.832031 299.238281 L 330.511719 294.589844 L 304.03125 241.628906 L 277.550781 294.589844 L 275.222656 299.238281 Z M 255.714844 241.632812 L 236.203125 202.613281 L 255.714844 163.59375 L 275.222656 202.613281 Z M 202.75 314.585938 L 224.25 357.582031 L 202.75 400.574219 L 181.253906 357.582031 Z M 202.75 338.375 L 212.359375 357.582031 L 202.75 376.796875 L 193.148438 357.582031 Z M 202.75 385.949219 L 203.894531 383.660156 L 215.789062 359.875 L 216.933594 357.589844 L 215.789062 355.300781 L 203.894531 331.515625 L 202.75 329.230469 L 201.609375 331.515625 L 189.710938 355.300781 L 188.570312 357.589844 L 189.710938 359.875 L 201.609375 383.660156 Z M 202.75 90.632812 L 224.25 47.640625 L 202.75 4.640625 L 181.253906 47.640625 Z M 202.75 0.0703125 L 205.039062 0.0703125 L 226.535156 43.0625 L 248.035156 0.0703125 L 252.609375 0.0703125 L 251.464844 2.355469 L 228.828125 47.640625 L 227.6875 49.925781 L 226.542969 52.210938 L 203.902344 97.496094 L 202.757812 99.785156 L 201.613281 97.496094 L 178.972656 52.210938 L 176.683594 47.640625 L 154.042969 2.355469 L 152.898438 0.0703125 L 157.472656 0.0703125 L 178.972656 43.0625 L 200.46875 0.0703125 Z M 202.75 66.847656 L 212.359375 47.640625 L 202.75 28.425781 L 193.148438 47.640625 Z M 202.75 19.273438 L 203.894531 21.5625 L 215.789062 45.347656 L 216.933594 47.632812 L 215.789062 49.921875 L 203.894531 73.707031 L 202.75 75.992188 L 201.609375 73.707031 L 189.710938 49.921875 L 188.570312 47.632812 L 189.710938 45.347656 L 201.609375 21.5625 Z M 212.359375 0.0703125 L 216.933594 0.0703125 L 226.535156 19.273438 L 236.140625 0.0703125 L 240.71875 0.0703125 L 239.574219 2.355469 L 227.679688 26.140625 L 226.535156 28.425781 L 225.394531 26.140625 L 213.503906 2.355469 Z M 395.695312 0.0703125 L 391.113281 0.0703125 L 381.511719 19.273438 L 371.910156 0.0703125 L 367.335938 0.0703125 L 368.476562 2.355469 L 380.375 26.140625 L 381.515625 28.425781 L 382.660156 26.140625 L 394.554688 2.355469 Z M 176.273438 207.261719 L 152.117188 255.574219 L 149.789062 260.222656 L 147.464844 255.574219 L 123.304688 207.261719 L 120.980469 202.613281 L 123.304688 197.96875 L 147.464844 149.652344 L 149.789062 145.003906 L 152.117188 149.652344 L 176.273438 197.96875 L 178.601562 202.613281 Z M 53.167969 115.28125 L 9.5 202.613281 L 53.167969 289.949219 L 96.835938 202.613281 Z M 101.480469 18.652344 L 57.816406 105.984375 L 101.480469 193.320312 L 145.148438 105.984375 Z M 101.480469 386.570312 L 145.148438 299.238281 L 101.480469 211.902344 L 57.816406 299.238281 Z M 149.796875 289.941406 L 193.460938 202.609375 L 149.796875 115.273438 L 106.128906 202.609375 Z M 101.480469 66.964844 L 81.972656 105.984375 L 101.480469 145.003906 L 120.992188 105.984375 Z M 75.003906 101.339844 L 99.160156 53.023438 L 101.488281 48.378906 L 103.808594 53.023438 L 127.964844 101.339844 L 130.285156 105.984375 L 127.964844 110.632812 L 103.808594 158.949219 L 101.488281 163.59375 L 99.160156 158.949219 L 75.003906 110.632812 L 72.675781 105.984375 Z M 26.691406 197.96875 L 50.847656 149.652344 L 53.167969 145.003906 L 55.492188 149.652344 L 79.652344 197.96875 L 81.972656 202.613281 L 79.652344 207.261719 L 55.492188 255.574219 L 53.167969 260.222656 L 50.847656 255.574219 L 26.691406 207.261719 L 24.363281 202.613281 Z M 53.167969 163.589844 L 33.65625 202.609375 L 53.167969 241.628906 L 72.675781 202.609375 Z M 101.480469 338.257812 L 120.992188 299.238281 L 101.480469 260.21875 L 81.972656 299.238281 Z M 127.960938 303.882812 L 103.800781 352.199219 L 101.480469 356.847656 L 99.15625 352.199219 L 74.996094 303.882812 L 72.671875 299.238281 L 74.996094 294.589844 L 99.15625 246.277344 L 101.480469 241.628906 L 103.800781 246.277344 L 127.960938 294.589844 L 130.28125 299.238281 Z M 149.796875 241.632812 L 169.304688 202.613281 L 149.796875 163.59375 L 130.285156 202.613281 Z M 0.207031 329.226562 L 0.207031 338.375 L 9.816406 357.582031 L 0.207031 376.796875 L 0.207031 385.949219 L 1.347656 383.660156 L 13.246094 359.875 L 14.386719 357.589844 L 13.246094 355.300781 L 1.347656 331.515625 Z M 193.148438 0.0703125 L 188.570312 0.0703125 L 178.964844 19.273438 L 169.355469 0.0703125 L 164.785156 0.0703125 L 165.925781 2.355469 L 177.824219 26.140625 L 178.964844 28.425781 L 180.109375 26.140625 L 192.003906 2.355469 Z M 0.207031 76 L 1.347656 73.710938 L 13.246094 49.925781 L 14.386719 47.640625 L 13.246094 45.351562 L 1.347656 21.566406 L 0.207031 19.28125 L 0.207031 28.433594 L 9.816406 47.644531 L 0.207031 66.851562 Z M 9.816406 0.0703125 L 10.957031 2.355469 L 22.847656 26.140625 L 23.992188 28.425781 L 25.132812 26.140625 L 37.03125 2.355469 L 38.171875 0.0703125 L 33.59375 0.0703125 L 23.992188 19.273438 L 14.386719 0.0703125 Z M 9.816406 0.0703125 " fill-opacity="1" fill-rule="evenodd"/></g></g></g></g><g mask="url(#ff1042939f)"><g transform="matrix(1, 0, 0, 1, 810, 0.000000000000039746)"><g clip-path="url(#ecf0c400c9)"><g clip-path="url(#90caa3736d)"><path fill="#395383" d="M 0.207031 99.785156 L 0.207031 90.632812 L 21.703125 47.640625 L 0.207031 4.640625 L 0.207031 0.0703125 L 2.492188 0.0703125 L 23.992188 43.0625 L 45.492188 0.0703125 L 50.0625 0.0703125 L 48.921875 2.355469 L 26.277344 47.640625 L 25.132812 49.925781 L 23.992188 52.210938 L 1.347656 97.496094 Z M 810.394531 710.53125 L 810.394531 719.683594 L 788.894531 762.679688 L 810.394531 805.671875 L 810.394531 810.25 L 808.109375 810.25 L 786.609375 767.253906 L 765.109375 810.25 L 760.53125 810.25 L 761.675781 807.964844 L 784.316406 762.679688 L 785.460938 760.394531 L 786.601562 758.105469 L 809.246094 712.828125 Z M 0.207031 710.53125 L 0.207031 719.683594 L 21.703125 762.679688 L 0.207031 805.671875 L 0.207031 810.25 L 2.492188 810.25 L 23.992188 767.253906 L 45.492188 810.25 L 50.0625 810.25 L 48.921875 807.964844 L 26.277344 762.679688 L 25.132812 760.394531 L 23.992188 758.105469 L 1.347656 712.828125 Z M 176.273438 603.058594 L 152.117188 554.746094 L 149.789062 550.097656 L 147.464844 554.746094 L 123.304688 603.058594 L 120.980469 607.707031 L 123.304688 612.351562 L 147.464844 660.667969 L 149.789062 665.316406 L 152.117188 660.667969 L 176.273438 612.351562 L 178.601562 607.707031 Z M 2.53125 612.351562 L 48.519531 704.328125 L 53.160156 713.625 L 99.148438 805.605469 L 101.476562 810.25 L 103.796875 805.605469 L 149.785156 713.625 L 152.109375 708.976562 L 154.429688 704.328125 L 200.417969 612.351562 L 202.738281 607.707031 L 205.066406 603.058594 L 251.054688 511.078125 L 255.703125 501.78125 L 301.6875 409.800781 L 304.015625 405.15625 L 306.335938 400.507812 L 352.324219 308.527344 L 354.652344 303.878906 L 356.972656 299.230469 L 402.960938 207.257812 L 405.28125 202.609375 L 407.605469 197.960938 L 453.59375 105.980469 L 455.921875 101.332031 L 458.242188 96.6875 L 504.230469 4.703125 L 506.554688 0.0585938 L 508.875 4.703125 L 554.863281 96.6875 L 557.183594 101.332031 L 559.511719 105.980469 L 605.5 197.960938 L 607.820312 202.609375 L 610.148438 207.257812 L 656.132812 299.230469 L 658.460938 303.878906 L 660.78125 308.527344 L 706.769531 400.507812 L 709.089844 405.15625 L 711.417969 409.800781 L 757.402344 501.78125 L 762.050781 511.078125 L 808.039062 603.058594 L 810.359375 607.707031 L 808.039062 612.351562 L 757.402344 713.625 L 711.417969 805.605469 L 709.089844 810.25 L 706.769531 805.605469 L 660.78125 713.625 L 658.460938 708.976562 L 656.132812 704.328125 L 610.148438 612.351562 L 607.820312 607.707031 L 605.5 603.058594 L 559.511719 511.078125 L 557.183594 506.429688 L 554.863281 501.78125 L 508.875 409.800781 L 506.554688 405.15625 L 504.230469 400.507812 L 458.242188 308.527344 L 455.921875 303.878906 L 453.59375 299.230469 L 407.605469 207.257812 L 405.28125 202.609375 L 402.960938 197.960938 L 356.972656 105.980469 L 354.652344 101.332031 L 352.324219 96.6875 L 306.335938 4.703125 L 304.015625 0.0585938 L 301.6875 4.703125 L 255.703125 96.6875 L 253.378906 101.332031 L 251.054688 105.980469 L 205.066406 197.960938 L 202.738281 202.609375 L 200.417969 207.257812 L 154.429688 299.230469 L 152.109375 303.878906 L 149.785156 308.527344 L 103.796875 400.507812 L 101.476562 405.15625 L 99.148438 409.800781 L 53.160156 501.78125 L 48.519531 511.078125 L 2.53125 603.058594 L 0.207031 607.707031 Z M 304.027344 405.160156 L 306.347656 409.808594 L 352.335938 501.789062 L 354.664062 506.4375 L 356.984375 511.082031 L 402.96875 603.0625 L 453.605469 704.335938 L 455.933594 708.980469 L 458.253906 713.628906 L 504.242188 805.609375 L 506.566406 810.257812 L 508.886719 805.609375 L 554.875 713.628906 L 557.195312 708.980469 L 559.523438 704.335938 L 605.511719 612.359375 L 607.832031 607.710938 L 610.15625 603.0625 L 656.144531 511.082031 L 658.472656 506.4375 L 660.792969 501.789062 L 706.78125 409.808594 L 709.101562 405.160156 L 711.429688 400.511719 L 757.414062 308.53125 L 759.738281 303.882812 L 762.0625 299.238281 L 808.050781 207.261719 L 810.371094 202.613281 L 808.050781 197.96875 L 762.0625 105.984375 L 759.738281 101.339844 L 757.414062 96.691406 L 711.429688 4.710938 L 709.101562 0.0625 L 706.78125 4.710938 L 660.804688 96.691406 L 658.484375 101.339844 L 656.15625 105.984375 L 610.167969 197.96875 L 607.84375 202.613281 L 605.523438 207.261719 L 559.535156 299.238281 L 557.207031 303.882812 L 554.886719 308.53125 L 508.898438 400.511719 L 506.578125 405.160156 L 504.253906 409.808594 L 458.265625 501.789062 L 455.945312 506.4375 L 453.617188 511.082031 L 407.628906 603.0625 L 402.980469 612.359375 L 356.996094 704.335938 L 354.671875 708.980469 L 352.347656 713.628906 L 306.359375 805.609375 L 304.039062 810.257812 L 301.710938 805.609375 L 255.722656 713.628906 L 253.402344 708.980469 L 251.078125 704.335938 L 205.089844 612.359375 L 202.761719 607.710938 L 200.441406 603.0625 L 154.453125 511.082031 L 152.132812 506.4375 L 149.808594 501.789062 L 103.820312 409.808594 L 101.5 405.160156 L 99.171875 400.511719 L 53.183594 308.53125 L 50.863281 303.882812 L 48.542969 299.238281 L 2.554688 207.261719 L 0.226562 202.613281 L 2.554688 197.96875 L 48.542969 105.984375 L 50.863281 101.339844 L 53.183594 96.691406 L 99.171875 4.710938 L 101.5 0.0625 L 103.820312 4.710938 L 149.808594 96.691406 L 152.132812 101.339844 L 154.453125 105.984375 L 200.441406 197.96875 L 202.761719 202.613281 L 205.089844 207.261719 L 251.078125 299.238281 L 253.402344 303.882812 L 255.722656 308.53125 L 301.710938 400.511719 Z M 53.167969 695.039062 L 9.5 607.707031 L 53.167969 520.371094 L 96.835938 607.707031 Z M 101.480469 791.660156 L 57.816406 704.328125 L 101.480469 616.996094 L 145.148438 704.328125 Z M 101.480469 423.742188 L 145.148438 511.078125 L 101.480469 598.410156 L 57.816406 511.078125 Z M 149.796875 520.371094 L 193.460938 607.707031 L 149.796875 695.039062 L 106.128906 607.707031 Z M 101.480469 743.347656 L 81.972656 704.328125 L 101.480469 665.308594 L 120.992188 704.328125 Z M 75.003906 708.976562 L 72.675781 704.328125 L 75.003906 699.679688 L 99.160156 651.367188 L 101.488281 646.71875 L 103.808594 651.367188 L 127.964844 699.679688 L 130.285156 704.328125 L 127.964844 708.976562 L 103.808594 757.289062 L 101.488281 761.9375 L 99.160156 757.289062 Z M 26.6875 612.351562 L 50.847656 660.667969 L 53.167969 665.316406 L 55.492188 660.667969 L 79.652344 612.351562 L 81.972656 607.707031 L 79.652344 603.058594 L 55.492188 554.746094 L 53.167969 550.097656 L 50.847656 554.746094 L 26.6875 603.058594 L 24.363281 607.707031 Z M 53.167969 646.726562 L 33.65625 607.707031 L 53.167969 568.6875 L 72.675781 607.707031 Z M 101.480469 472.058594 L 120.992188 511.078125 L 101.480469 550.097656 L 81.972656 511.078125 Z M 127.960938 506.429688 L 130.28125 511.078125 L 127.960938 515.726562 L 103.800781 564.039062 L 101.480469 568.6875 L 99.15625 564.039062 L 74.996094 515.726562 L 72.671875 511.078125 L 74.996094 506.429688 L 99.15625 458.117188 L 101.480469 453.46875 L 103.800781 458.117188 Z M 149.796875 568.6875 L 169.304688 607.707031 L 149.796875 646.726562 L 130.285156 607.707031 Z M 202.75 495.722656 L 181.253906 452.730469 L 202.75 409.734375 L 224.25 452.730469 Z M 200.464844 405.160156 L 178.964844 448.152344 L 157.46875 405.160156 L 178.964844 362.160156 Z M 152.894531 405.160156 L 154.039062 407.445312 L 176.679688 452.730469 L 177.824219 455.019531 L 178.964844 457.304688 L 201.609375 502.589844 L 202.75 504.875 L 203.894531 502.589844 L 226.535156 457.304688 L 227.679688 455.019531 L 228.824219 452.730469 L 251.460938 407.445312 L 252.601562 405.160156 L 251.460938 402.875 L 228.824219 357.589844 L 227.679688 355.300781 L 226.535156 353.015625 L 203.894531 307.738281 L 202.75 305.449219 L 201.609375 307.738281 L 178.964844 353.015625 L 177.824219 355.300781 L 176.679688 357.589844 L 154.039062 402.875 Z M 248.035156 405.160156 L 226.535156 448.152344 L 205.039062 405.160156 L 226.535156 362.160156 Z M 202.75 471.9375 L 193.148438 452.730469 L 202.75 433.519531 L 212.359375 452.730469 Z M 202.75 424.367188 L 201.609375 426.652344 L 189.710938 450.4375 L 188.570312 452.726562 L 189.710938 455.011719 L 201.609375 478.796875 L 202.75 481.082031 L 203.894531 478.796875 L 215.789062 455.011719 L 216.933594 452.726562 L 215.789062 450.4375 L 203.894531 426.652344 Z M 188.570312 405.160156 L 178.964844 424.367188 L 169.355469 405.160156 L 178.964844 385.949219 Z M 164.789062 405.160156 L 165.933594 407.445312 L 177.828125 431.230469 L 178.972656 433.519531 L 180.113281 431.230469 L 192.011719 407.445312 L 193.152344 405.160156 L 192.011719 402.875 L 180.113281 379.089844 L 178.972656 376.800781 L 177.828125 379.089844 L 165.933594 402.875 Z M 0.207031 504.875 L 0.207031 495.722656 L 21.703125 452.730469 L 0.207031 409.734375 L 0.207031 400.582031 L 21.703125 357.589844 L 0.207031 314.589844 L 0.207031 305.4375 L 1.347656 307.726562 L 23.992188 353.003906 L 25.132812 355.292969 L 26.277344 357.578125 L 48.921875 402.863281 L 50.0625 405.148438 L 48.921875 407.433594 L 26.277344 452.71875 L 25.132812 455.007812 L 23.992188 457.292969 L 1.347656 502.578125 Z M 2.5 405.160156 L 23.996094 448.152344 L 45.496094 405.160156 L 23.996094 362.160156 Z M 0.207031 481.089844 L 0.207031 471.9375 L 9.816406 452.730469 L 0.207031 433.519531 L 0.207031 424.367188 L 1.347656 426.652344 L 13.246094 450.4375 L 14.386719 452.726562 L 13.246094 455.011719 L 1.347656 478.796875 Z M 14.386719 405.160156 L 23.992188 424.367188 L 33.59375 405.160156 L 23.992188 385.949219 Z M 38.171875 405.160156 L 37.03125 407.445312 L 25.132812 431.230469 L 23.992188 433.519531 L 22.847656 431.230469 L 10.957031 407.445312 L 9.816406 405.160156 L 10.957031 402.875 L 22.847656 379.089844 L 23.992188 376.800781 L 25.132812 379.089844 L 37.03125 402.875 Z M 202.75 719.683594 L 181.253906 762.679688 L 202.75 805.671875 L 224.25 762.679688 Z M 202.75 810.25 L 200.464844 810.25 L 178.964844 767.253906 L 157.46875 810.25 L 152.894531 810.25 L 154.039062 807.964844 L 176.679688 762.679688 L 177.824219 760.394531 L 178.964844 758.105469 L 201.609375 712.828125 L 202.75 710.542969 L 203.894531 712.828125 L 226.535156 758.105469 L 227.679688 760.394531 L 228.824219 762.679688 L 251.460938 807.964844 L 252.601562 810.25 L 248.03125 810.25 L 226.53125 767.253906 L 205.03125 810.25 Z M 202.75 743.46875 L 193.148438 762.679688 L 202.75 781.894531 L 212.359375 762.679688 Z M 202.75 791.039062 L 201.609375 788.753906 L 189.710938 764.96875 L 188.570312 762.679688 L 189.710938 760.394531 L 201.609375 736.609375 L 202.75 734.320312 L 203.894531 736.609375 L 215.789062 760.394531 L 216.933594 762.679688 L 215.789062 764.96875 L 203.894531 788.753906 Z M 193.148438 810.25 L 188.570312 810.25 L 178.964844 791.039062 L 169.355469 810.25 L 164.785156 810.25 L 165.925781 807.964844 L 177.824219 784.179688 L 178.964844 781.894531 L 180.109375 784.179688 L 192.003906 807.964844 Z M 0.207031 734.316406 L 1.347656 736.601562 L 13.246094 760.386719 L 14.386719 762.675781 L 13.246094 764.960938 L 1.347656 788.746094 L 0.207031 791.035156 L 0.207031 781.882812 L 9.816406 762.667969 L 0.207031 743.457031 Z M 9.816406 810.25 L 10.957031 807.964844 L 22.847656 784.179688 L 23.992188 781.894531 L 25.132812 784.179688 L 37.03125 807.964844 L 38.171875 810.25 L 33.59375 810.25 L 23.992188 791.039062 L 14.386719 810.25 Z M 405.296875 719.683594 L 383.796875 762.679688 L 405.296875 805.671875 L 426.796875 762.679688 Z M 405.296875 810.25 L 403.011719 810.25 L 381.511719 767.253906 L 360.011719 810.25 L 355.433594 810.25 L 356.578125 807.964844 L 379.21875 762.679688 L 380.363281 760.394531 L 381.507812 758.105469 L 404.148438 712.828125 L 405.292969 710.542969 L 406.433594 712.828125 L 429.078125 758.105469 L 430.21875 760.394531 L 431.363281 762.679688 L 454 807.964844 L 455.144531 810.25 L 450.570312 810.25 L 429.070312 767.253906 L 407.574219 810.25 Z M 229.234375 603.058594 L 255.714844 550.097656 L 258.035156 554.746094 L 282.195312 603.058594 L 284.515625 607.707031 L 282.195312 612.351562 L 258.035156 660.667969 L 255.714844 665.316406 L 253.390625 660.667969 L 229.234375 612.351562 L 226.914062 607.707031 Z M 352.339844 695.039062 L 396.007812 607.707031 L 352.339844 520.371094 L 308.675781 607.707031 Z M 304.027344 791.660156 L 347.695312 704.328125 L 304.027344 616.996094 L 260.359375 704.328125 Z M 304.027344 423.742188 L 260.359375 511.078125 L 304.027344 598.410156 L 347.695312 511.078125 Z M 255.714844 520.371094 L 212.046875 607.707031 L 255.714844 695.039062 L 299.378906 607.707031 Z M 304.027344 743.347656 L 323.535156 704.328125 L 304.027344 665.308594 L 284.515625 704.328125 Z M 330.503906 708.976562 L 306.347656 757.289062 L 304.027344 761.9375 L 301.699219 757.289062 L 275.21875 704.328125 L 301.699219 651.367188 L 304.027344 646.71875 L 306.347656 651.367188 L 330.503906 699.679688 L 332.824219 704.328125 Z M 378.820312 612.351562 L 354.664062 660.667969 L 352.335938 665.316406 L 350.015625 660.667969 L 325.859375 612.351562 L 323.53125 607.707031 L 325.859375 603.058594 L 350.015625 554.746094 L 352.335938 550.097656 L 354.664062 554.746094 L 381.144531 607.707031 Z M 352.339844 646.726562 L 371.851562 607.707031 L 352.339844 568.6875 L 332.832031 607.707031 Z M 304.027344 472.058594 L 284.515625 511.078125 L 304.027344 550.097656 L 323.535156 511.078125 Z M 277.550781 506.429688 L 304.03125 453.46875 L 330.511719 506.429688 L 332.832031 511.078125 L 330.511719 515.726562 L 304.03125 568.6875 L 277.550781 515.726562 L 275.222656 511.078125 Z M 255.714844 568.6875 L 236.203125 607.707031 L 255.714844 646.726562 L 275.222656 607.707031 Z M 216.933594 405.160156 L 226.535156 424.367188 L 236.140625 405.160156 L 226.535156 385.949219 Z M 240.71875 405.160156 L 239.574219 407.445312 L 227.679688 431.230469 L 226.535156 433.519531 L 225.394531 431.230469 L 213.503906 407.445312 L 212.359375 405.160156 L 213.503906 402.875 L 225.394531 379.089844 L 226.535156 376.800781 L 227.679688 379.089844 L 239.574219 402.875 Z M 405.296875 495.722656 L 383.796875 452.730469 L 405.296875 409.734375 L 426.796875 452.730469 Z M 403.011719 405.160156 L 381.511719 448.152344 L 360.011719 405.160156 L 381.511719 362.160156 Z M 355.441406 405.160156 L 356.582031 407.445312 L 379.226562 452.730469 L 380.367188 455.019531 L 381.511719 457.304688 L 404.152344 502.589844 L 405.296875 504.875 L 406.441406 502.589844 L 429.082031 457.304688 L 430.226562 455.019531 L 431.371094 452.730469 L 454.003906 407.445312 L 455.148438 405.160156 L 454.003906 402.875 L 431.371094 357.589844 L 430.226562 355.300781 L 429.082031 353.015625 L 406.441406 307.738281 L 405.296875 305.449219 L 404.152344 307.738281 L 381.511719 353.015625 L 380.367188 355.300781 L 379.226562 357.589844 L 356.582031 402.875 Z M 450.582031 405.160156 L 429.082031 448.152344 L 407.582031 405.160156 L 429.082031 362.160156 Z M 405.296875 471.9375 L 395.695312 452.730469 L 405.296875 433.519531 L 414.90625 452.730469 Z M 405.296875 424.367188 L 404.152344 426.652344 L 392.257812 450.4375 L 391.113281 452.726562 L 392.257812 455.011719 L 404.152344 478.796875 L 405.296875 481.082031 L 406.441406 478.796875 L 418.335938 455.011719 L 419.480469 452.726562 L 418.335938 450.4375 L 406.441406 426.652344 Z M 391.113281 405.160156 L 381.511719 424.367188 L 371.910156 405.160156 L 381.511719 385.949219 Z M 367.335938 405.160156 L 368.476562 407.445312 L 380.375 431.230469 L 381.515625 433.519531 L 382.660156 431.230469 L 394.554688 407.445312 L 395.699219 405.160156 L 394.554688 402.875 L 382.660156 379.089844 L 381.515625 376.800781 L 380.375 379.089844 L 368.476562 402.875 Z M 212.359375 810.25 L 216.933594 810.25 L 226.535156 791.039062 L 236.140625 810.25 L 240.71875 810.25 L 239.574219 807.964844 L 227.679688 784.179688 L 226.535156 781.894531 L 225.394531 784.179688 L 213.503906 807.964844 Z M 405.296875 743.46875 L 395.695312 762.679688 L 405.296875 781.894531 L 414.90625 762.679688 Z M 405.296875 791.039062 L 404.152344 788.753906 L 392.257812 764.96875 L 391.113281 762.679688 L 392.257812 760.394531 L 404.152344 736.609375 L 405.296875 734.320312 L 406.441406 736.609375 L 418.335938 760.394531 L 419.480469 762.679688 L 418.335938 764.96875 L 406.441406 788.753906 Z M 395.695312 810.25 L 391.113281 810.25 L 381.511719 791.039062 L 371.910156 810.25 L 367.335938 810.25 L 368.476562 807.964844 L 380.375 784.179688 L 381.515625 781.894531 L 382.660156 784.179688 L 394.554688 807.964844 Z M 581.363281 603.058594 L 557.207031 554.746094 L 554.886719 550.097656 L 552.558594 554.746094 L 526.078125 607.707031 L 528.402344 612.351562 L 552.558594 660.667969 L 554.886719 665.316406 L 557.207031 660.667969 L 581.363281 612.351562 L 583.6875 607.707031 Z M 458.257812 695.039062 L 414.59375 607.707031 L 458.257812 520.371094 L 501.925781 607.707031 Z M 506.574219 791.660156 L 462.90625 704.328125 L 506.574219 616.996094 L 550.238281 704.328125 Z M 506.574219 423.742188 L 550.238281 511.078125 L 506.574219 598.410156 L 462.90625 511.078125 Z M 554.886719 520.371094 L 598.554688 607.707031 L 554.886719 695.039062 L 511.21875 607.707031 Z M 506.574219 743.347656 L 487.0625 704.328125 L 506.574219 665.308594 L 526.082031 704.328125 Z M 480.09375 708.976562 L 504.253906 757.289062 L 506.578125 761.9375 L 508.898438 757.289062 L 535.378906 704.328125 L 508.898438 651.367188 L 506.578125 646.71875 L 504.253906 651.367188 L 480.09375 699.679688 L 477.769531 704.328125 Z M 431.78125 612.351562 L 455.9375 660.667969 L 458.257812 665.316406 L 460.585938 660.667969 L 484.742188 612.351562 L 487.0625 607.707031 L 484.742188 603.058594 L 460.585938 554.746094 L 458.257812 550.097656 L 455.9375 554.746094 L 431.78125 603.058594 L 429.460938 607.707031 Z M 458.257812 646.726562 L 438.75 607.707031 L 458.257812 568.6875 L 477.769531 607.707031 Z M 506.574219 472.058594 L 526.082031 511.078125 L 506.574219 550.097656 L 487.0625 511.078125 Z M 533.050781 506.429688 L 508.894531 458.117188 L 506.574219 453.46875 L 504.246094 458.117188 L 480.089844 506.429688 L 477.761719 511.078125 L 480.089844 515.726562 L 504.246094 564.039062 L 506.574219 568.6875 L 508.894531 564.039062 L 533.050781 515.726562 L 535.371094 511.078125 Z M 554.886719 568.6875 L 574.398438 607.707031 L 554.886719 646.726562 L 535.378906 607.707031 Z M 607.84375 495.722656 L 586.34375 452.730469 L 607.84375 409.734375 L 629.34375 452.730469 Z M 605.554688 405.160156 L 584.058594 448.152344 L 562.558594 405.160156 L 584.058594 362.160156 Z M 557.984375 405.160156 L 559.128906 407.445312 L 581.769531 452.730469 L 582.914062 455.019531 L 584.058594 457.304688 L 606.699219 502.589844 L 607.84375 504.875 L 608.984375 502.589844 L 631.628906 457.304688 L 632.773438 455.019531 L 633.914062 452.730469 L 656.558594 407.445312 L 657.699219 405.160156 L 656.558594 402.875 L 633.914062 357.589844 L 632.773438 355.300781 L 631.628906 353.015625 L 608.984375 307.738281 L 607.84375 305.449219 L 606.699219 307.738281 L 584.058594 353.015625 L 582.914062 355.300781 L 581.769531 357.589844 L 559.128906 402.875 Z M 653.128906 405.160156 L 631.628906 448.152344 L 610.128906 405.160156 L 631.628906 362.160156 Z M 607.84375 471.9375 L 598.238281 452.730469 L 607.84375 433.519531 L 617.453125 452.730469 Z M 607.84375 424.367188 L 606.699219 426.652344 L 594.804688 450.4375 L 593.660156 452.726562 L 594.804688 455.011719 L 606.699219 478.796875 L 607.84375 481.082031 L 608.984375 478.796875 L 620.882812 455.011719 L 622.023438 452.726562 L 620.882812 450.4375 L 608.984375 426.652344 Z M 593.660156 405.160156 L 584.058594 424.367188 L 574.453125 405.160156 L 584.058594 385.949219 Z M 569.875 405.160156 L 571.019531 407.445312 L 582.914062 431.230469 L 584.058594 433.519531 L 585.199219 431.230469 L 597.097656 407.445312 L 598.238281 405.160156 L 597.097656 402.875 L 585.199219 379.089844 L 584.058594 376.800781 L 582.914062 379.089844 L 571.019531 402.875 Z M 419.480469 405.160156 L 429.089844 424.367188 L 438.691406 405.160156 L 429.089844 385.949219 Z M 443.265625 405.160156 L 442.121094 407.445312 L 430.226562 431.230469 L 429.082031 433.519531 L 427.9375 431.230469 L 416.042969 407.445312 L 414.902344 405.160156 L 416.042969 402.875 L 427.9375 379.089844 L 429.082031 376.800781 L 430.226562 379.089844 L 442.121094 402.875 Z M 607.84375 719.683594 L 586.34375 762.679688 L 607.84375 805.671875 L 629.34375 762.679688 Z M 607.84375 810.25 L 605.554688 810.25 L 584.058594 767.253906 L 562.558594 810.25 L 557.980469 810.25 L 559.121094 807.964844 L 581.765625 762.679688 L 582.910156 760.394531 L 584.050781 758.105469 L 606.695312 712.828125 L 607.835938 710.542969 L 608.980469 712.828125 L 631.621094 758.105469 L 632.765625 760.394531 L 633.910156 762.679688 L 656.550781 807.964844 L 657.695312 810.25 L 653.121094 810.25 L 631.621094 767.253906 L 610.125 810.25 Z M 607.84375 743.46875 L 598.238281 762.679688 L 607.84375 781.894531 L 617.453125 762.679688 Z M 607.84375 791.039062 L 606.699219 788.753906 L 594.804688 764.96875 L 593.660156 762.679688 L 594.804688 760.394531 L 606.699219 736.609375 L 607.84375 734.320312 L 608.984375 736.609375 L 620.882812 760.394531 L 622.023438 762.679688 L 620.882812 764.96875 L 608.984375 788.753906 Z M 598.238281 810.25 L 593.660156 810.25 L 584.058594 791.039062 L 574.453125 810.25 L 569.875 810.25 L 571.019531 807.964844 L 582.914062 784.179688 L 584.058594 781.894531 L 585.199219 784.179688 L 597.097656 807.964844 Z M 414.90625 810.25 L 419.480469 810.25 L 429.089844 791.039062 L 438.691406 810.25 L 443.269531 810.25 L 442.128906 807.964844 L 430.230469 784.179688 L 429.089844 781.894531 L 427.945312 784.179688 L 416.050781 807.964844 Z M 634.328125 603.058594 L 658.484375 554.746094 L 660.804688 550.097656 L 663.125 554.746094 L 687.28125 603.058594 L 689.609375 607.707031 L 687.28125 612.351562 L 663.125 660.667969 L 660.804688 665.316406 L 658.484375 660.667969 L 634.328125 612.351562 L 632.003906 607.707031 Z M 757.433594 695.039062 L 801.101562 607.707031 L 757.433594 520.371094 L 713.765625 607.707031 Z M 709.117188 791.660156 L 752.785156 704.328125 L 709.117188 616.996094 L 665.453125 704.328125 Z M 709.117188 423.742188 L 665.453125 511.078125 L 709.117188 598.410156 L 752.785156 511.078125 Z M 660.804688 520.371094 L 617.136719 607.707031 L 660.804688 695.039062 L 704.472656 607.707031 Z M 709.117188 743.347656 L 728.628906 704.328125 L 709.117188 665.308594 L 689.609375 704.328125 Z M 735.601562 708.976562 L 711.445312 757.289062 L 709.117188 761.9375 L 706.796875 757.289062 L 682.640625 708.976562 L 680.3125 704.328125 L 682.640625 699.679688 L 706.796875 651.367188 L 709.117188 646.71875 L 711.445312 651.367188 L 735.601562 699.679688 L 737.921875 704.328125 Z M 783.910156 612.351562 L 759.753906 660.667969 L 757.433594 665.316406 L 755.105469 660.667969 L 730.949219 612.351562 L 728.621094 607.707031 L 730.949219 603.058594 L 755.105469 554.746094 L 757.433594 550.097656 L 759.753906 554.746094 L 783.910156 603.058594 L 786.238281 607.707031 Z M 757.433594 646.726562 L 776.941406 607.707031 L 757.433594 568.6875 L 737.921875 607.707031 Z M 709.117188 472.058594 L 689.609375 511.078125 L 709.117188 550.097656 L 728.628906 511.078125 Z M 682.640625 506.429688 L 706.796875 458.117188 L 709.117188 453.46875 L 711.445312 458.117188 L 735.601562 506.429688 L 737.921875 511.078125 L 735.601562 515.726562 L 711.445312 564.039062 L 709.117188 568.6875 L 706.796875 564.039062 L 682.640625 515.726562 L 680.3125 511.078125 Z M 660.804688 568.6875 L 641.292969 607.707031 L 660.804688 646.726562 L 680.3125 607.707031 Z M 622.023438 405.160156 L 631.632812 424.367188 L 641.238281 405.160156 L 631.632812 385.949219 Z M 645.816406 405.160156 L 644.671875 407.445312 L 632.777344 431.230469 L 631.632812 433.519531 L 630.492188 431.230469 L 618.59375 407.445312 L 617.453125 405.160156 L 618.59375 402.875 L 630.492188 379.089844 L 631.632812 376.800781 L 632.777344 379.089844 L 644.671875 402.875 Z M 810.394531 504.875 L 810.394531 495.722656 L 788.894531 452.730469 L 810.394531 409.734375 L 810.394531 400.582031 L 788.894531 357.589844 L 810.394531 314.589844 L 810.394531 305.4375 L 809.25 307.726562 L 786.609375 353.003906 L 785.464844 355.292969 L 784.320312 357.578125 L 761.679688 402.863281 L 760.535156 405.148438 L 761.679688 407.433594 L 784.320312 452.71875 L 785.464844 455.007812 L 786.609375 457.292969 L 809.25 502.578125 Z M 808.101562 405.160156 L 786.601562 448.152344 L 765.105469 405.160156 L 786.601562 362.160156 Z M 810.394531 481.089844 L 810.394531 471.9375 L 800.789062 452.730469 L 810.394531 433.519531 L 810.394531 424.367188 L 809.25 426.652344 L 797.355469 450.4375 L 796.210938 452.726562 L 797.355469 455.011719 L 809.25 478.796875 Z M 796.210938 405.160156 L 786.609375 424.367188 L 777.003906 405.160156 L 786.609375 385.949219 Z M 772.425781 405.160156 L 773.570312 407.445312 L 785.464844 431.230469 L 786.609375 433.519531 L 787.753906 431.230469 L 799.648438 407.445312 L 800.789062 405.160156 L 799.648438 402.875 L 787.753906 379.089844 L 786.609375 376.800781 L 785.464844 379.089844 L 773.570312 402.875 Z M 617.453125 810.25 L 622.023438 810.25 L 631.632812 791.039062 L 641.238281 810.25 L 645.816406 810.25 L 644.671875 807.964844 L 632.777344 784.179688 L 631.632812 781.894531 L 630.492188 784.179688 L 618.59375 807.964844 Z M 810.394531 734.316406 L 809.25 736.601562 L 797.355469 760.386719 L 796.210938 762.675781 L 797.355469 764.960938 L 809.25 788.746094 L 810.394531 791.035156 L 810.394531 781.882812 L 800.789062 762.667969 L 810.394531 743.457031 Z M 800.785156 810.25 L 799.640625 807.964844 L 787.746094 784.179688 L 786.601562 781.894531 L 785.460938 784.179688 L 773.5625 807.964844 L 772.421875 810.25 L 776.992188 810.25 L 786.597656 791.039062 L 796.199219 810.25 Z M 810.394531 99.785156 L 810.394531 90.632812 L 788.894531 47.640625 L 810.394531 4.640625 L 810.394531 0.0703125 L 808.109375 0.0703125 L 786.609375 43.0625 L 765.109375 0.0703125 L 760.53125 0.0703125 L 761.675781 2.355469 L 784.316406 47.640625 L 785.460938 49.925781 L 786.601562 52.210938 L 809.246094 97.496094 Z M 634.328125 207.261719 L 658.484375 255.574219 L 660.804688 260.222656 L 663.125 255.574219 L 687.28125 207.261719 L 689.609375 202.613281 L 687.28125 197.96875 L 663.125 149.652344 L 660.804688 145.003906 L 658.484375 149.652344 L 634.328125 197.96875 L 632.003906 202.613281 Z M 757.433594 115.28125 L 801.101562 202.613281 L 757.433594 289.949219 L 713.765625 202.613281 Z M 709.117188 18.652344 L 752.785156 105.984375 L 709.117188 193.320312 L 665.453125 105.984375 Z M 709.117188 386.570312 L 665.453125 299.238281 L 709.117188 211.902344 L 752.785156 299.238281 Z M 660.804688 289.941406 L 617.136719 202.609375 L 660.804688 115.273438 L 704.472656 202.609375 Z M 709.117188 66.964844 L 728.628906 105.984375 L 709.117188 145.003906 L 689.609375 105.984375 Z M 735.601562 101.339844 L 711.445312 53.023438 L 709.117188 48.378906 L 706.796875 53.023438 L 682.640625 101.339844 L 680.3125 105.984375 L 682.640625 110.632812 L 706.796875 158.949219 L 709.117188 163.59375 L 711.445312 158.949219 L 735.601562 110.632812 L 737.921875 105.984375 Z M 783.910156 197.96875 L 759.753906 149.652344 L 757.433594 145.003906 L 755.105469 149.652344 L 730.949219 197.96875 L 728.621094 202.613281 L 730.949219 207.261719 L 755.105469 255.574219 L 757.433594 260.222656 L 759.753906 255.574219 L 783.910156 207.261719 L 786.238281 202.613281 Z M 757.433594 163.589844 L 776.941406 202.609375 L 757.433594 241.628906 L 737.921875 202.609375 Z M 709.117188 338.257812 L 689.609375 299.238281 L 709.117188 260.21875 L 728.628906 299.238281 Z M 682.640625 303.882812 L 706.796875 352.199219 L 709.117188 356.847656 L 711.445312 352.199219 L 735.601562 303.882812 L 737.921875 299.238281 L 735.601562 294.589844 L 711.445312 246.277344 L 709.117188 241.628906 L 706.796875 246.277344 L 682.640625 294.589844 L 680.3125 299.238281 Z M 660.804688 241.632812 L 641.292969 202.613281 L 660.804688 163.59375 L 680.3125 202.613281 Z M 607.84375 314.585938 L 629.34375 357.582031 L 607.84375 400.574219 L 586.34375 357.582031 Z M 607.84375 338.375 L 617.453125 357.582031 L 607.84375 376.796875 L 598.238281 357.582031 Z M 607.84375 385.949219 L 608.984375 383.660156 L 620.882812 359.875 L 622.023438 357.589844 L 620.882812 355.300781 L 608.984375 331.515625 L 607.84375 329.230469 L 606.699219 331.515625 L 594.804688 355.300781 L 593.660156 357.589844 L 594.804688 359.875 L 606.699219 383.660156 Z M 810.394531 329.226562 L 810.394531 338.375 L 800.789062 357.582031 L 810.394531 376.796875 L 810.394531 385.949219 L 809.25 383.660156 L 797.355469 359.875 L 796.210938 357.589844 L 797.355469 355.300781 L 809.25 331.515625 Z M 607.84375 90.632812 L 629.34375 47.640625 L 607.84375 4.640625 L 586.34375 47.640625 Z M 607.84375 0.0703125 L 610.128906 0.0703125 L 631.628906 43.0625 L 653.128906 0.0703125 L 657.699219 0.0703125 L 656.558594 2.355469 L 633.914062 47.640625 L 632.773438 49.925781 L 631.628906 52.210938 L 608.984375 97.496094 L 607.84375 99.785156 L 606.699219 97.496094 L 584.058594 52.210938 L 581.769531 47.640625 L 559.128906 2.355469 L 557.984375 0.0703125 L 562.5625 0.0703125 L 584.0625 43.0625 L 605.5625 0.0703125 Z M 607.84375 66.847656 L 617.453125 47.640625 L 607.84375 28.425781 L 598.238281 47.640625 Z M 607.84375 19.273438 L 608.984375 21.5625 L 620.882812 45.347656 L 622.023438 47.632812 L 620.882812 49.921875 L 608.984375 73.707031 L 607.84375 75.992188 L 606.699219 73.707031 L 594.804688 49.921875 L 593.660156 47.632812 L 594.804688 45.347656 L 606.699219 21.5625 Z M 617.453125 0.0703125 L 622.023438 0.0703125 L 631.632812 19.273438 L 641.238281 0.0703125 L 645.816406 0.0703125 L 644.671875 2.355469 L 632.777344 26.140625 L 631.632812 28.425781 L 630.492188 26.140625 L 618.59375 2.355469 Z M 810.394531 76 L 810.394531 66.847656 L 800.789062 47.640625 L 810.394531 28.425781 L 810.394531 19.273438 L 809.25 21.5625 L 797.355469 45.347656 L 796.210938 47.632812 L 797.355469 49.921875 L 809.25 73.707031 Z M 800.785156 0.0703125 L 796.207031 0.0703125 L 786.601562 19.273438 L 777 0.0703125 L 772.425781 0.0703125 L 773.570312 2.355469 L 785.464844 26.140625 L 786.609375 28.425781 L 787.753906 26.140625 L 799.648438 2.355469 Z M 405.296875 90.632812 L 426.796875 47.640625 L 405.296875 4.640625 L 383.796875 47.640625 Z M 405.296875 0.0703125 L 407.582031 0.0703125 L 429.082031 43.0625 L 450.582031 0.0703125 L 455.15625 0.0703125 L 454.011719 2.355469 L 431.375 47.640625 L 430.230469 49.925781 L 429.089844 52.210938 L 406.445312 97.496094 L 405.304688 99.785156 L 404.160156 97.496094 L 381.515625 52.210938 L 380.375 49.925781 L 379.230469 47.640625 L 356.589844 2.355469 L 355.445312 0.0703125 L 360.023438 0.0703125 L 381.523438 43.0625 L 403.023438 0.0703125 Z M 581.363281 207.261719 L 557.207031 255.574219 L 554.886719 260.222656 L 552.558594 255.574219 L 526.078125 202.613281 L 528.402344 197.96875 L 552.558594 149.652344 L 554.886719 145.003906 L 557.207031 149.652344 L 581.363281 197.96875 L 583.6875 202.613281 Z M 458.257812 115.28125 L 414.59375 202.613281 L 458.257812 289.949219 L 501.925781 202.613281 Z M 506.574219 18.652344 L 462.90625 105.984375 L 506.574219 193.320312 L 550.238281 105.984375 Z M 506.574219 386.570312 L 550.238281 299.238281 L 506.574219 211.902344 L 462.90625 299.238281 Z M 554.886719 289.941406 L 598.554688 202.609375 L 554.886719 115.273438 L 511.21875 202.609375 Z M 506.574219 66.964844 L 487.0625 105.984375 L 506.574219 145.003906 L 526.082031 105.984375 Z M 480.09375 101.339844 L 504.253906 53.023438 L 506.578125 48.378906 L 508.898438 53.023438 L 533.054688 101.339844 L 535.378906 105.984375 L 533.054688 110.632812 L 508.898438 158.949219 L 506.578125 163.59375 L 504.253906 158.949219 L 480.09375 110.632812 L 477.769531 105.984375 Z M 431.78125 197.96875 L 455.9375 149.652344 L 458.257812 145.003906 L 460.585938 149.652344 L 484.742188 197.96875 L 487.0625 202.613281 L 484.742188 207.261719 L 460.585938 255.574219 L 458.257812 260.222656 L 455.9375 255.574219 L 431.78125 207.261719 L 429.460938 202.613281 Z M 458.257812 163.589844 L 438.75 202.609375 L 458.257812 241.628906 L 477.769531 202.609375 Z M 506.574219 338.257812 L 526.082031 299.238281 L 506.574219 260.21875 L 487.0625 299.238281 Z M 533.050781 303.882812 L 508.894531 352.199219 L 506.574219 356.847656 L 504.246094 352.199219 L 480.089844 303.882812 L 477.761719 299.238281 L 480.089844 294.589844 L 504.246094 246.277344 L 506.574219 241.628906 L 508.894531 246.277344 L 533.050781 294.589844 L 535.371094 299.238281 Z M 554.886719 241.632812 L 574.398438 202.613281 L 554.886719 163.59375 L 535.378906 202.613281 Z M 405.296875 314.585938 L 426.796875 357.582031 L 405.296875 400.574219 L 383.796875 357.582031 Z M 405.296875 338.375 L 414.90625 357.582031 L 405.296875 376.796875 L 395.695312 357.582031 Z M 405.296875 385.949219 L 406.441406 383.660156 L 418.335938 359.875 L 419.480469 357.589844 L 418.335938 355.300781 L 406.441406 331.515625 L 405.296875 329.230469 L 404.152344 331.515625 L 392.257812 355.300781 L 391.113281 357.589844 L 392.257812 359.875 L 404.152344 383.660156 Z M 598.238281 0.0703125 L 593.660156 0.0703125 L 584.058594 19.273438 L 574.453125 0.0703125 L 569.875 0.0703125 L 571.019531 2.355469 L 582.914062 26.140625 L 584.058594 28.425781 L 585.199219 26.140625 L 597.097656 2.355469 Z M 405.296875 66.847656 L 414.90625 47.640625 L 405.296875 28.425781 L 395.695312 47.640625 Z M 405.296875 19.273438 L 406.441406 21.5625 L 418.335938 45.347656 L 419.480469 47.632812 L 418.335938 49.921875 L 406.441406 73.707031 L 405.296875 75.992188 L 404.152344 73.707031 L 392.257812 49.921875 L 391.113281 47.632812 L 392.257812 45.347656 L 404.152344 21.5625 Z M 414.90625 0.0703125 L 419.480469 0.0703125 L 429.089844 19.273438 L 438.691406 0.0703125 L 443.269531 0.0703125 L 442.128906 2.355469 L 430.230469 26.140625 L 429.089844 28.425781 L 427.945312 26.140625 L 416.050781 2.355469 Z M 229.234375 207.261719 L 255.714844 260.222656 L 258.035156 255.574219 L 282.195312 207.261719 L 284.515625 202.613281 L 282.195312 197.96875 L 258.035156 149.652344 L 255.714844 145.003906 L 253.390625 149.652344 L 229.234375 197.96875 L 226.914062 202.613281 Z M 352.339844 115.28125 L 396.007812 202.613281 L 352.339844 289.949219 L 308.675781 202.613281 Z M 304.027344 18.652344 L 347.695312 105.984375 L 304.027344 193.320312 L 260.359375 105.984375 Z M 304.027344 386.570312 L 260.359375 299.238281 L 304.027344 211.902344 L 347.695312 299.238281 Z M 255.714844 289.941406 L 212.046875 202.609375 L 255.714844 115.273438 L 299.378906 202.609375 Z M 304.027344 66.964844 L 323.535156 105.984375 L 304.027344 145.003906 L 284.515625 105.984375 Z M 330.503906 101.339844 L 306.347656 53.023438 L 304.027344 48.378906 L 301.699219 53.023438 L 277.542969 101.339844 L 275.21875 105.984375 L 277.542969 110.632812 L 301.699219 158.949219 L 304.027344 163.59375 L 306.347656 158.949219 L 330.503906 110.632812 L 332.824219 105.984375 Z M 378.820312 197.96875 L 354.664062 149.652344 L 352.335938 145.003906 L 350.015625 149.652344 L 325.859375 197.96875 L 323.53125 202.613281 L 325.859375 207.261719 L 350.015625 255.574219 L 352.335938 260.222656 L 354.664062 255.574219 L 381.144531 202.613281 Z M 352.339844 163.589844 L 371.851562 202.609375 L 352.339844 241.628906 L 332.832031 202.609375 Z M 304.027344 338.257812 L 284.515625 299.238281 L 304.027344 260.21875 L 323.535156 299.238281 Z M 277.550781 303.882812 L 301.707031 352.199219 L 304.03125 356.847656 L 306.355469 352.199219 L 330.511719 303.882812 L 332.832031 299.238281 L 330.511719 294.589844 L 304.03125 241.628906 L 277.550781 294.589844 L 275.222656 299.238281 Z M 255.714844 241.632812 L 236.203125 202.613281 L 255.714844 163.59375 L 275.222656 202.613281 Z M 202.75 314.585938 L 224.25 357.582031 L 202.75 400.574219 L 181.253906 357.582031 Z M 202.75 338.375 L 212.359375 357.582031 L 202.75 376.796875 L 193.148438 357.582031 Z M 202.75 385.949219 L 203.894531 383.660156 L 215.789062 359.875 L 216.933594 357.589844 L 215.789062 355.300781 L 203.894531 331.515625 L 202.75 329.230469 L 201.609375 331.515625 L 189.710938 355.300781 L 188.570312 357.589844 L 189.710938 359.875 L 201.609375 383.660156 Z M 202.75 90.632812 L 224.25 47.640625 L 202.75 4.640625 L 181.253906 47.640625 Z M 202.75 0.0703125 L 205.039062 0.0703125 L 226.535156 43.0625 L 248.035156 0.0703125 L 252.609375 0.0703125 L 251.464844 2.355469 L 228.828125 47.640625 L 227.6875 49.925781 L 226.542969 52.210938 L 203.902344 97.496094 L 202.757812 99.785156 L 201.613281 97.496094 L 178.972656 52.210938 L 176.683594 47.640625 L 154.042969 2.355469 L 152.898438 0.0703125 L 157.472656 0.0703125 L 178.972656 43.0625 L 200.46875 0.0703125 Z M 202.75 66.847656 L 212.359375 47.640625 L 202.75 28.425781 L 193.148438 47.640625 Z M 202.75 19.273438 L 203.894531 21.5625 L 215.789062 45.347656 L 216.933594 47.632812 L 215.789062 49.921875 L 203.894531 73.707031 L 202.75 75.992188 L 201.609375 73.707031 L 189.710938 49.921875 L 188.570312 47.632812 L 189.710938 45.347656 L 201.609375 21.5625 Z M 212.359375 0.0703125 L 216.933594 0.0703125 L 226.535156 19.273438 L 236.140625 0.0703125 L 240.71875 0.0703125 L 239.574219 2.355469 L 227.679688 26.140625 L 226.535156 28.425781 L 225.394531 26.140625 L 213.503906 2.355469 Z M 395.695312 0.0703125 L 391.113281 0.0703125 L 381.511719 19.273438 L 371.910156 0.0703125 L 367.335938 0.0703125 L 368.476562 2.355469 L 380.375 26.140625 L 381.515625 28.425781 L 382.660156 26.140625 L 394.554688 2.355469 Z M 176.273438 207.261719 L 152.117188 255.574219 L 149.789062 260.222656 L 147.464844 255.574219 L 123.304688 207.261719 L 120.980469 202.613281 L 123.304688 197.96875 L 147.464844 149.652344 L 149.789062 145.003906 L 152.117188 149.652344 L 176.273438 197.96875 L 178.601562 202.613281 Z M 53.167969 115.28125 L 9.5 202.613281 L 53.167969 289.949219 L 96.835938 202.613281 Z M 101.480469 18.652344 L 57.816406 105.984375 L 101.480469 193.320312 L 145.148438 105.984375 Z M 101.480469 386.570312 L 145.148438 299.238281 L 101.480469 211.902344 L 57.816406 299.238281 Z M 149.796875 289.941406 L 193.460938 202.609375 L 149.796875 115.273438 L 106.128906 202.609375 Z M 101.480469 66.964844 L 81.972656 105.984375 L 101.480469 145.003906 L 120.992188 105.984375 Z M 75.003906 101.339844 L 99.160156 53.023438 L 101.488281 48.378906 L 103.808594 53.023438 L 127.964844 101.339844 L 130.285156 105.984375 L 127.964844 110.632812 L 103.808594 158.949219 L 101.488281 163.59375 L 99.160156 158.949219 L 75.003906 110.632812 L 72.675781 105.984375 Z M 26.6875 197.96875 L 50.847656 149.652344 L 53.167969 145.003906 L 55.492188 149.652344 L 79.652344 197.96875 L 81.972656 202.613281 L 79.652344 207.261719 L 55.492188 255.574219 L 53.167969 260.222656 L 50.847656 255.574219 L 26.6875 207.261719 L 24.363281 202.613281 Z M 53.167969 163.589844 L 33.65625 202.609375 L 53.167969 241.628906 L 72.675781 202.609375 Z M 101.480469 338.257812 L 120.992188 299.238281 L 101.480469 260.21875 L 81.972656 299.238281 Z M 127.960938 303.882812 L 103.800781 352.199219 L 101.480469 356.847656 L 99.15625 352.199219 L 74.996094 303.882812 L 72.671875 299.238281 L 74.996094 294.589844 L 99.15625 246.277344 L 101.480469 241.628906 L 103.800781 246.277344 L 127.960938 294.589844 L 130.28125 299.238281 Z M 149.796875 241.632812 L 169.304688 202.613281 L 149.796875 163.59375 L 130.285156 202.613281 Z M 0.207031 329.226562 L 0.207031 338.375 L 9.816406 357.582031 L 0.207031 376.796875 L 0.207031 385.949219 L 1.347656 383.660156 L 13.246094 359.875 L 14.386719 357.589844 L 13.246094 355.300781 L 1.347656 331.515625 Z M 193.148438 0.0703125 L 188.570312 0.0703125 L 178.964844 19.273438 L 169.355469 0.0703125 L 164.785156 0.0703125 L 165.925781 2.355469 L 177.824219 26.140625 L 178.964844 28.425781 L 180.109375 26.140625 L 192.003906 2.355469 Z M 0.207031 76 L 1.347656 73.710938 L 13.246094 49.925781 L 14.386719 47.640625 L 13.246094 45.351562 L 1.347656 21.566406 L 0.207031 19.28125 L 0.207031 28.433594 L 9.816406 47.644531 L 0.207031 66.851562 Z M 9.816406 0.0703125 L 10.957031 2.355469 L 22.847656 26.140625 L 23.992188 28.425781 L 25.132812 26.140625 L 37.03125 2.355469 L 38.171875 0.0703125 L 33.59375 0.0703125 L 23.992188 19.273438 L 14.386719 0.0703125 Z M 9.816406 0.0703125 " fill-opacity="1" fill-rule="evenodd"/></g></g></g></g></svg>